<svg width="230" height="42" viewBox="0 0 230 42" fill="none" xmlns="http://www.w3.org/2000/svg">
<g clip-path="url(#clip0_2601_13)">
<rect opacity="0.7" x="23" y="5" width="32" height="32" fill="white"/>
<path d="M46 22.4H40.4V28H37.6V22.4H32V19.6H37.6V14H40.4V19.6H46V22.4Z" fill="black"/>
</g>
<path opacity="0.7" d="M77.0074 25.21C75.5794 25.21 74.3754 24.734 73.3954 23.782C72.4154 22.83 71.9254 21.584 71.9254 20.044C71.9254 18.5133 72.4201 17.2673 73.4094 16.306C74.4081 15.3447 75.5981 14.864 76.9794 14.864C78.2487 14.864 79.2661 15.186 80.0314 15.83C80.8061 16.474 81.3054 17.2487 81.5294 18.154L79.7094 18.728C79.5694 18.168 79.2754 17.6967 78.8274 17.314C78.3794 16.922 77.7634 16.726 76.9794 16.726C76.1674 16.726 75.4534 17.0153 74.8374 17.594C74.2307 18.1727 73.9274 18.9893 73.9274 20.044C73.9274 21.052 74.2261 21.85 74.8234 22.438C75.4301 23.026 76.1581 23.32 77.0074 23.32C77.7821 23.32 78.3981 23.1193 78.8554 22.718C79.3221 22.3167 79.6347 21.8407 79.7934 21.29L81.5994 21.836C81.4967 22.2373 81.3287 22.6293 81.0954 23.012C80.8714 23.3947 80.5774 23.754 80.2134 24.09C79.8494 24.426 79.3874 24.6967 78.8274 24.902C78.2767 25.1073 77.6701 25.21 77.0074 25.21ZM87.1418 18.084V19.96C86.9551 19.9227 86.7684 19.904 86.5818 19.904C86.0498 19.904 85.6204 20.058 85.2938 20.366C84.9671 20.6647 84.8038 21.1593 84.8038 21.85V25H82.9418V18.112H84.7478V19.134C85.0838 18.4153 85.7371 18.056 86.7078 18.056C86.8104 18.056 86.9551 18.0653 87.1418 18.084ZM89.7412 20.772H92.8212C92.8025 20.3893 92.6625 20.0673 92.4012 19.806C92.1492 19.5447 91.7758 19.414 91.2812 19.414C90.8332 19.414 90.4692 19.554 90.1892 19.834C89.9092 20.114 89.7598 20.4267 89.7412 20.772ZM93.0032 22.564L94.5572 23.026C94.3705 23.6607 94.0018 24.1833 93.4512 24.594C92.9098 25.0047 92.2332 25.21 91.4212 25.21C90.4318 25.21 89.5918 24.8787 88.9012 24.216C88.2105 23.544 87.8652 22.648 87.8652 21.528C87.8652 20.464 88.2012 19.596 88.8732 18.924C89.5452 18.2427 90.3385 17.902 91.2532 17.902C92.3172 17.902 93.1478 18.2193 93.7452 18.854C94.3518 19.4887 94.6552 20.3613 94.6552 21.472C94.6552 21.5467 94.6505 21.6307 94.6412 21.724C94.6412 21.8173 94.6412 21.892 94.6412 21.948L94.6272 22.046H89.6992C89.7178 22.494 89.8952 22.8673 90.2312 23.166C90.5672 23.4647 90.9685 23.614 91.4352 23.614C92.2285 23.614 92.7512 23.264 93.0032 22.564ZM95.7014 23.124C95.7014 22.536 95.8928 22.0647 96.2754 21.71C96.6581 21.3553 97.1528 21.1313 97.7594 21.038L99.4534 20.786C99.7988 20.7393 99.9714 20.576 99.9714 20.296C99.9714 20.0347 99.8688 19.82 99.6634 19.652C99.4674 19.484 99.1828 19.4 98.8094 19.4C98.4174 19.4 98.1048 19.5073 97.8714 19.722C97.6474 19.9367 97.5214 20.2027 97.4934 20.52L95.8414 20.17C95.9068 19.5727 96.2008 19.0453 96.7234 18.588C97.2461 18.1307 97.9368 17.902 98.7954 17.902C99.8221 17.902 100.578 18.1493 101.063 18.644C101.549 19.1293 101.791 19.7547 101.791 20.52V23.908C101.791 24.3187 101.819 24.6827 101.875 25H100.167C100.121 24.7947 100.097 24.5193 100.097 24.174C99.6588 24.8553 98.9821 25.196 98.0674 25.196C97.3581 25.196 96.7841 24.9907 96.3454 24.58C95.9161 24.1693 95.7014 23.684 95.7014 23.124ZM98.4594 23.81C98.8981 23.81 99.2574 23.6887 99.5374 23.446C99.8268 23.194 99.9714 22.7833 99.9714 22.214V21.906L98.4174 22.144C97.8481 22.228 97.5634 22.5173 97.5634 23.012C97.5634 23.236 97.6428 23.4273 97.8014 23.586C97.9601 23.7353 98.1794 23.81 98.4594 23.81ZM105.923 16.054V18.112H107.309V19.764H105.923V22.648C105.923 22.9373 105.989 23.1427 106.119 23.264C106.25 23.3853 106.455 23.446 106.735 23.446C106.987 23.446 107.179 23.4273 107.309 23.39V24.93C107.039 25.042 106.689 25.098 106.259 25.098C105.587 25.098 105.055 24.9113 104.663 24.538C104.271 24.1553 104.075 23.6327 104.075 22.97V19.764H102.829V18.112H103.179C103.525 18.112 103.786 18.014 103.963 17.818C104.15 17.6127 104.243 17.3467 104.243 17.02V16.054H105.923ZM110.181 20.772H113.261C113.242 20.3893 113.102 20.0673 112.841 19.806C112.589 19.5447 112.215 19.414 111.721 19.414C111.273 19.414 110.909 19.554 110.629 19.834C110.349 20.114 110.199 20.4267 110.181 20.772ZM113.443 22.564L114.997 23.026C114.81 23.6607 114.441 24.1833 113.891 24.594C113.349 25.0047 112.673 25.21 111.861 25.21C110.871 25.21 110.031 24.8787 109.341 24.216C108.65 23.544 108.305 22.648 108.305 21.528C108.305 20.464 108.641 19.596 109.313 18.924C109.985 18.2427 110.778 17.902 111.693 17.902C112.757 17.902 113.587 18.2193 114.185 18.854C114.791 19.4887 115.095 20.3613 115.095 21.472C115.095 21.5467 115.09 21.6307 115.081 21.724C115.081 21.8173 115.081 21.892 115.081 21.948L115.067 22.046H110.139C110.157 22.494 110.335 22.8673 110.671 23.166C111.007 23.4647 111.408 23.614 111.875 23.614C112.668 23.614 113.191 23.264 113.443 22.564ZM122.106 19.596H123.632C124.108 19.596 124.486 19.47 124.766 19.218C125.046 18.9567 125.186 18.6113 125.186 18.182C125.186 17.7433 125.046 17.398 124.766 17.146C124.495 16.8847 124.117 16.754 123.632 16.754H122.106V19.596ZM123.87 21.262H122.092V25H120.16V15.074H123.87C124.841 15.074 125.625 15.3633 126.222 15.942C126.829 16.5207 127.132 17.2627 127.132 18.168C127.132 19.0733 126.829 19.8153 126.222 20.394C125.625 20.9727 124.841 21.262 123.87 21.262ZM130.276 25H128.414V14.864H130.276V25ZM131.809 23.124C131.809 22.536 132 22.0647 132.383 21.71C132.766 21.3553 133.26 21.1313 133.867 21.038L135.561 20.786C135.906 20.7393 136.079 20.576 136.079 20.296C136.079 20.0347 135.976 19.82 135.771 19.652C135.575 19.484 135.29 19.4 134.917 19.4C134.525 19.4 134.212 19.5073 133.979 19.722C133.755 19.9367 133.629 20.2027 133.601 20.52L131.949 20.17C132.014 19.5727 132.308 19.0453 132.831 18.588C133.354 18.1307 134.044 17.902 134.903 17.902C135.93 17.902 136.686 18.1493 137.171 18.644C137.656 19.1293 137.899 19.7547 137.899 20.52V23.908C137.899 24.3187 137.927 24.6827 137.983 25H136.275C136.228 24.7947 136.205 24.5193 136.205 24.174C135.766 24.8553 135.09 25.196 134.175 25.196C133.466 25.196 132.892 24.9907 132.453 24.58C132.024 24.1693 131.809 23.684 131.809 23.124ZM134.567 23.81C135.006 23.81 135.365 23.6887 135.645 23.446C135.934 23.194 136.079 22.7833 136.079 22.214V21.906L134.525 22.144C133.956 22.228 133.671 22.5173 133.671 23.012C133.671 23.236 133.75 23.4273 133.909 23.586C134.068 23.7353 134.287 23.81 134.567 23.81ZM141.978 27.716H140.004L141.628 24.132L138.702 18.112H140.788L142.622 22.144L144.316 18.112H146.304L141.978 27.716ZM149.294 25H147.432V14.864H149.294V25ZM153.149 25H151.287V18.112H153.149V25ZM151.063 15.858C151.063 15.5407 151.175 15.27 151.399 15.046C151.623 14.8127 151.894 14.696 152.211 14.696C152.529 14.696 152.799 14.808 153.023 15.032C153.247 15.256 153.359 15.5313 153.359 15.858C153.359 16.166 153.247 16.432 153.023 16.656C152.799 16.88 152.529 16.992 152.211 16.992C151.894 16.992 151.623 16.88 151.399 16.656C151.175 16.432 151.063 16.166 151.063 15.858ZM154.555 23.082L156.151 22.732C156.17 23.0307 156.286 23.2827 156.501 23.488C156.725 23.684 157.028 23.782 157.411 23.782C157.7 23.782 157.924 23.7167 158.083 23.586C158.242 23.4553 158.321 23.292 158.321 23.096C158.321 22.7507 158.074 22.5267 157.579 22.424L156.669 22.214C156.025 22.074 155.54 21.822 155.213 21.458C154.896 21.094 154.737 20.66 154.737 20.156C154.737 19.5307 154.98 18.9987 155.465 18.56C155.96 18.1213 156.576 17.902 157.313 17.902C157.78 17.902 158.19 17.972 158.545 18.112C158.9 18.2427 159.175 18.4153 159.371 18.63C159.567 18.8353 159.716 19.0453 159.819 19.26C159.922 19.4747 159.987 19.6847 160.015 19.89L158.461 20.24C158.424 19.9973 158.312 19.7827 158.125 19.596C157.948 19.4093 157.682 19.316 157.327 19.316C157.084 19.316 156.874 19.3813 156.697 19.512C156.529 19.6427 156.445 19.806 156.445 20.002C156.445 20.338 156.655 20.5433 157.075 20.618L158.055 20.828C158.718 20.968 159.222 21.2247 159.567 21.598C159.922 21.9713 160.099 22.4193 160.099 22.942C160.099 23.558 159.866 24.09 159.399 24.538C158.932 24.986 158.274 25.21 157.425 25.21C156.94 25.21 156.506 25.14 156.123 25C155.74 24.8507 155.442 24.664 155.227 24.44C155.022 24.2067 154.863 23.978 154.751 23.754C154.648 23.5207 154.583 23.2967 154.555 23.082ZM163.892 16.054V18.112H165.278V19.764H163.892V22.648C163.892 22.9373 163.957 23.1427 164.088 23.264C164.219 23.3853 164.424 23.446 164.704 23.446C164.956 23.446 165.147 23.4273 165.278 23.39V24.93C165.007 25.042 164.657 25.098 164.228 25.098C163.556 25.098 163.024 24.9113 162.632 24.538C162.24 24.1553 162.044 23.6327 162.044 22.97V19.764H160.798V18.112H161.148C161.493 18.112 161.755 18.014 161.932 17.818C162.119 17.6127 162.212 17.3467 162.212 17.02V16.054H163.892Z" fill="white"/>
<defs>
<clipPath id="clip0_2601_13">
<rect width="32" height="32" fill="white" transform="translate(23 5)"/>
</clipPath>
</defs>
</svg>
