<svg width="72" height="10" viewBox="0 0 72 10" fill="none" xmlns="http://www.w3.org/2000/svg">
<path d="M2.64 4.368H3.948C4.356 4.368 4.68 4.26 4.92 4.044C5.16 3.82 5.28 3.524 5.28 3.156C5.28 2.78 5.16 2.484 4.92 2.268C4.688 2.044 4.364 1.932 3.948 1.932H2.64V4.368ZM4.152 5.796H2.628V9H0.972V0.491999H4.152C4.984 0.491999 5.656 0.74 6.168 1.236C6.688 1.732 6.948 2.368 6.948 3.144C6.948 3.92 6.688 4.556 6.168 5.052C5.656 5.548 4.984 5.796 4.152 5.796ZM14.8622 9H9.41419V0.491999H11.0702V7.416H14.8622V9ZM23.1948 9L22.4868 7.056H19.0308L18.3228 9H16.5708L19.8348 0.491999H21.7548L24.9948 9H23.1948ZM20.7588 2.328L19.5828 5.544H21.9348L20.7588 2.328ZM28.434 5.424L25.47 0.491999H27.414L29.322 3.864L31.23 0.491999H33.09L30.09 5.424V9H28.434V5.424ZM40.8333 9H35.3853V0.491999H37.0413V7.416H40.8333V9ZM44.9801 9H43.3001V0.491999H44.9801V9ZM53.8452 2.52L52.3572 2.976C52.3012 2.672 52.1492 2.396 51.9012 2.148C51.6532 1.9 51.2892 1.776 50.8092 1.776C50.4172 1.776 50.0972 1.884 49.8492 2.1C49.6012 2.308 49.4772 2.56 49.4772 2.856C49.4772 3.376 49.7852 3.696 50.4012 3.816L51.5892 4.044C52.3412 4.188 52.9252 4.488 53.3412 4.944C53.7572 5.4 53.9652 5.936 53.9652 6.552C53.9652 7.256 53.6852 7.872 53.1252 8.4C52.5732 8.92 51.8292 9.18 50.8932 9.18C50.3572 9.18 49.8732 9.1 49.4412 8.94C49.0092 8.78 48.6612 8.568 48.3972 8.304C48.1332 8.032 47.9252 7.748 47.7732 7.452C47.6292 7.148 47.5412 6.836 47.5092 6.516L49.0452 6.108C49.0852 6.564 49.2612 6.944 49.5732 7.248C49.8932 7.552 50.3372 7.704 50.9052 7.704C51.3372 7.704 51.6732 7.608 51.9132 7.416C52.1612 7.224 52.2852 6.972 52.2852 6.66C52.2852 6.412 52.1932 6.2 52.0092 6.024C51.8332 5.84 51.5812 5.716 51.2532 5.652L50.0652 5.412C49.3772 5.268 48.8332 4.984 48.4332 4.56C48.0332 4.136 47.8332 3.608 47.8332 2.976C47.8332 2.224 48.1212 1.592 48.6972 1.08C49.2812 0.568 49.9812 0.312 50.7972 0.312C51.2852 0.312 51.7212 0.38 52.1052 0.516C52.4892 0.651999 52.7972 0.835999 53.0292 1.068C53.2612 1.292 53.4412 1.524 53.5692 1.764C53.6972 2.004 53.7892 2.256 53.8452 2.52ZM62.804 2.064H60.116V9H58.448V2.064H55.76V0.491999H62.804V2.064ZM70.8937 2.52L69.4057 2.976C69.3497 2.672 69.1977 2.396 68.9497 2.148C68.7017 1.9 68.3377 1.776 67.8577 1.776C67.4657 1.776 67.1457 1.884 66.8977 2.1C66.6497 2.308 66.5257 2.56 66.5257 2.856C66.5257 3.376 66.8337 3.696 67.4497 3.816L68.6377 4.044C69.3897 4.188 69.9737 4.488 70.3897 4.944C70.8057 5.4 71.0137 5.936 71.0137 6.552C71.0137 7.256 70.7337 7.872 70.1737 8.4C69.6217 8.92 68.8777 9.18 67.9417 9.18C67.4057 9.18 66.9217 9.1 66.4897 8.94C66.0577 8.78 65.7097 8.568 65.4457 8.304C65.1817 8.032 64.9737 7.748 64.8217 7.452C64.6777 7.148 64.5897 6.836 64.5577 6.516L66.0937 6.108C66.1337 6.564 66.3097 6.944 66.6217 7.248C66.9417 7.552 67.3857 7.704 67.9537 7.704C68.3857 7.704 68.7217 7.608 68.9617 7.416C69.2097 7.224 69.3337 6.972 69.3337 6.66C69.3337 6.412 69.2417 6.2 69.0577 6.024C68.8817 5.84 68.6297 5.716 68.3017 5.652L67.1137 5.412C66.4257 5.268 65.8817 4.984 65.4817 4.56C65.0817 4.136 64.8817 3.608 64.8817 2.976C64.8817 2.224 65.1697 1.592 65.7457 1.08C66.3297 0.568 67.0297 0.312 67.8457 0.312C68.3337 0.312 68.7697 0.38 69.1537 0.516C69.5377 0.651999 69.8457 0.835999 70.0777 1.068C70.3097 1.292 70.4897 1.524 70.6177 1.764C70.7457 2.004 70.8377 2.256 70.8937 2.52Z" fill="#B3B3B3"/>
</svg>
