<svg width="216" height="40" viewBox="0 0 216 40" fill="none" xmlns="http://www.w3.org/2000/svg">
<path fill-rule="evenodd" clip-rule="evenodd" d="M32.3929 24.3096L36.7858 29.4643L36.0239 30.1191L31.6191 24.9643C30.1032 26.1151 28.3968 26.6905 26.5 26.6905C25.3492 26.6905 24.248 26.4663 23.1964 26.0179C22.1449 25.5695 21.2401 24.9663 20.4821 24.2084C19.7242 23.4505 19.121 22.5457 18.6726 21.4941C18.2242 20.4425 18 19.3413 18 18.1905C18 17.0398 18.2242 15.9386 18.6726 14.887C19.121 13.8354 19.7242 12.9306 20.4821 12.1727C21.24 11.4147 22.1448 10.8116 23.1964 10.3632C24.248 9.91476 25.3492 9.69055 26.5 9.69055C27.6507 9.69055 28.7519 9.91476 29.8035 10.3632C30.8552 10.8116 31.7599 11.4147 32.5178 12.1727C33.2758 12.9306 33.8789 13.8354 34.3274 14.887C34.7758 15.9386 35 17.0398 35 18.1905C35 19.3731 34.7698 20.4921 34.3095 21.5477C33.8492 22.6032 33.2103 23.5239 32.3928 24.3096L32.3929 24.3096ZM26.5001 25.6905C27.8572 25.6905 29.1112 25.3552 30.262 24.6845C31.4128 24.0138 32.3235 23.1031 32.9941 21.9523C33.6648 20.8016 34.0001 19.5476 34.0001 18.1904C34.0002 16.8333 33.6648 15.5793 32.9941 14.4285C32.3235 13.2778 31.4127 12.3671 30.262 11.6964C29.1112 11.0258 27.8573 10.6905 26.5001 10.6905C25.1429 10.6905 23.8889 11.0258 22.7382 11.6964C21.5874 12.3671 20.6767 13.2778 20.0061 14.4285C19.3354 15.5793 19.0001 16.8333 19.0001 18.1904C19.0002 19.5476 19.3355 20.8016 20.0061 21.9523C20.6767 23.1031 21.5874 24.0138 22.7382 24.6845C23.889 25.3552 25.143 25.6905 26.5001 25.6905Z" fill="#B3B3B3"/>
<path opacity="0.7" d="M63.812 16.44L62.076 16.972C62.0107 16.6173 61.8333 16.2953 61.544 16.006C61.2547 15.7167 60.83 15.572 60.27 15.572C59.8127 15.572 59.4393 15.698 59.15 15.95C58.8607 16.1927 58.716 16.4867 58.716 16.832C58.716 17.4387 59.0753 17.812 59.794 17.952L61.18 18.218C62.0573 18.386 62.7387 18.736 63.224 19.268C63.7093 19.8 63.952 20.4253 63.952 21.144C63.952 21.9653 63.6253 22.684 62.972 23.3C62.328 23.9067 61.46 24.21 60.368 24.21C59.7427 24.21 59.178 24.1167 58.674 23.93C58.17 23.7433 57.764 23.496 57.456 23.188C57.148 22.8707 56.9053 22.5393 56.728 22.194C56.56 21.8393 56.4573 21.4753 56.42 21.102L58.212 20.626C58.2587 21.158 58.464 21.6013 58.828 21.956C59.2013 22.3107 59.7193 22.488 60.382 22.488C60.886 22.488 61.278 22.376 61.558 22.152C61.8473 21.928 61.992 21.634 61.992 21.27C61.992 20.9807 61.8847 20.7333 61.67 20.528C61.4647 20.3133 61.1707 20.1687 60.788 20.094L59.402 19.814C58.5993 19.646 57.9647 19.3147 57.498 18.82C57.0313 18.3253 56.798 17.7093 56.798 16.972C56.798 16.0947 57.134 15.3573 57.806 14.76C58.4873 14.1627 59.304 13.864 60.256 13.864C60.8253 13.864 61.334 13.9433 61.782 14.102C62.23 14.2607 62.5893 14.4753 62.86 14.746C63.1307 15.0073 63.3407 15.278 63.49 15.558C63.6393 15.838 63.7467 16.132 63.812 16.44ZM66.7465 19.772H69.8265C69.8079 19.3893 69.6679 19.0673 69.4065 18.806C69.1545 18.5447 68.7812 18.414 68.2865 18.414C67.8385 18.414 67.4745 18.554 67.1945 18.834C66.9145 19.114 66.7652 19.4267 66.7465 19.772ZM70.0085 21.564L71.5625 22.026C71.3759 22.6607 71.0072 23.1833 70.4565 23.594C69.9152 24.0047 69.2385 24.21 68.4265 24.21C67.4372 24.21 66.5972 23.8787 65.9065 23.216C65.2159 22.544 64.8705 21.648 64.8705 20.528C64.8705 19.464 65.2065 18.596 65.8785 17.924C66.5505 17.2427 67.3439 16.902 68.2585 16.902C69.3225 16.902 70.1532 17.2193 70.7505 17.854C71.3572 18.4887 71.6605 19.3613 71.6605 20.472C71.6605 20.5467 71.6559 20.6307 71.6465 20.724C71.6465 20.8173 71.6465 20.892 71.6465 20.948L71.6325 21.046H66.7045C66.7232 21.494 66.9005 21.8673 67.2365 22.166C67.5725 22.4647 67.9739 22.614 68.4405 22.614C69.2339 22.614 69.7565 22.264 70.0085 21.564ZM72.7068 22.124C72.7068 21.536 72.8981 21.0647 73.2808 20.71C73.6635 20.3553 74.1581 20.1313 74.7648 20.038L76.4588 19.786C76.8041 19.7393 76.9768 19.576 76.9768 19.296C76.9768 19.0347 76.8741 18.82 76.6688 18.652C76.4728 18.484 76.1881 18.4 75.8148 18.4C75.4228 18.4 75.1101 18.5073 74.8768 18.722C74.6528 18.9367 74.5268 19.2027 74.4988 19.52L72.8468 19.17C72.9121 18.5727 73.2061 18.0453 73.7288 17.588C74.2515 17.1307 74.9421 16.902 75.8008 16.902C76.8275 16.902 77.5835 17.1493 78.0688 17.644C78.5541 18.1293 78.7968 18.7547 78.7968 19.52V22.908C78.7968 23.3187 78.8248 23.6827 78.8808 24H77.1728C77.1261 23.7947 77.1028 23.5193 77.1028 23.174C76.6641 23.8553 75.9875 24.196 75.0728 24.196C74.3635 24.196 73.7895 23.9907 73.3508 23.58C72.9215 23.1693 72.7068 22.684 72.7068 22.124ZM75.4648 22.81C75.9035 22.81 76.2628 22.6887 76.5428 22.446C76.8321 22.194 76.9768 21.7833 76.9768 21.214V20.906L75.4228 21.144C74.8535 21.228 74.5688 21.5173 74.5688 22.012C74.5688 22.236 74.6481 22.4273 74.8068 22.586C74.9655 22.7353 75.1848 22.81 75.4648 22.81ZM84.8737 17.084V18.96C84.687 18.9227 84.5004 18.904 84.3137 18.904C83.7817 18.904 83.3524 19.058 83.0257 19.366C82.699 19.6647 82.5357 20.1593 82.5357 20.85V24H80.6737V17.112H82.4797V18.134C82.8157 17.4153 83.469 17.056 84.4397 17.056C84.5424 17.056 84.687 17.0653 84.8737 17.084ZM89.2091 18.624C88.7144 18.624 88.2991 18.7967 87.9631 19.142C87.6271 19.4873 87.4591 19.9587 87.4591 20.556C87.4591 21.1533 87.6271 21.6293 87.9631 21.984C88.3084 22.3293 88.7284 22.502 89.2231 22.502C89.6618 22.502 90.0118 22.39 90.2731 22.166C90.5344 21.9327 90.7118 21.6573 90.8051 21.34L92.4431 21.886C92.2751 22.5207 91.9111 23.0667 91.3511 23.524C90.7911 23.9813 90.0818 24.21 89.2231 24.21C88.1964 24.21 87.3331 23.8647 86.6331 23.174C85.9424 22.474 85.5971 21.6013 85.5971 20.556C85.5971 19.5013 85.9378 18.6287 86.6191 17.938C87.3098 17.2473 88.1591 16.902 89.1671 16.902C90.0444 16.902 90.7631 17.1307 91.3231 17.588C91.8831 18.036 92.2424 18.582 92.4011 19.226L90.7351 19.786C90.5111 19.0113 90.0024 18.624 89.2091 18.624ZM95.6744 19.954V24H93.8124V13.864H95.6744V17.686C96.0944 17.182 96.715 16.93 97.5364 16.93C98.3764 16.93 99.011 17.1867 99.4404 17.7C99.879 18.204 100.098 18.8573 100.098 19.66V24H98.2364V19.982C98.2364 19.5713 98.129 19.24 97.9144 18.988C97.709 18.736 97.3917 18.61 96.9624 18.61C96.5797 18.61 96.2717 18.736 96.0384 18.988C95.8144 19.24 95.693 19.562 95.6744 19.954Z" fill="white"/>
</svg>
