<svg width="19" height="22" viewBox="0 0 19 22" fill="none" xmlns="http://www.w3.org/2000/svg">
<path fill-rule="evenodd" clip-rule="evenodd" d="M14.3929 15.3096L18.7858 20.4643L18.0239 21.1191L13.6191 15.9643C12.1032 17.1151 10.3968 17.6905 8.49999 17.6905C7.34917 17.6905 6.24798 17.4663 5.19642 17.0179C4.14486 16.5695 3.24009 15.9663 2.48213 15.2084C1.72416 14.4505 1.12098 13.5457 0.672609 12.4941C0.224234 11.4425 3.12533e-05 10.3413 3.26632e-09 9.19054C-3.12467e-05 8.03975 0.224172 6.93857 0.672609 5.88697C1.12105 4.83538 1.72422 3.93061 2.48213 3.17268C3.24003 2.41474 4.1448 1.81157 5.19642 1.36316C6.24805 0.914755 7.34924 0.690552 8.49999 0.690552C9.65074 0.690552 10.7519 0.914755 11.8035 1.36316C12.8552 1.81157 13.7599 2.41474 14.5178 3.17268C15.2758 3.93061 15.8789 4.83538 16.3274 5.88697C16.7758 6.93857 17 8.03975 17 9.19054C17 10.3731 16.7698 11.4921 16.3095 12.5477C15.8492 13.6032 15.2103 14.5239 14.3928 15.3096L14.3929 15.3096ZM8.50008 16.6905C9.8572 16.6905 11.1112 16.3552 12.262 15.6845C13.4128 15.0138 14.3235 14.1031 14.9941 12.9523C15.6648 11.8016 16.0001 10.5476 16.0001 9.19044C16.0002 7.83329 15.6648 6.57932 14.9941 5.42854C14.3235 4.27775 13.4127 3.36705 12.262 2.69643C11.1112 2.0258 9.85727 1.69049 8.50008 1.69049C7.14289 1.69049 5.88892 2.0258 4.73817 2.69643C3.58742 3.36705 2.67672 4.27775 2.00606 5.42854C1.33541 6.57932 1.00009 7.83329 1.00013 9.19044C1.00016 10.5476 1.33547 11.8016 2.00606 12.9523C2.67666 14.1031 3.58736 15.0138 4.73817 15.6845C5.88898 16.3552 7.14295 16.6905 8.50008 16.6905Z" fill="#B3B3B3"/>
</svg>
