<svg width="216" height="40" viewBox="0 0 216 40" fill="none" xmlns="http://www.w3.org/2000/svg">
<path d="M0 4C0 1.79086 1.79086 0 4 0H212C214.209 0 216 1.79086 216 4V36C216 38.2091 214.209 40 212 40H4C1.79086 40 0 38.2091 0 36V4Z" fill="#282828"/>
<path d="M37 29.7381H30V22.7382H26V29.7381H19V14.9524L28 9.71436L37 14.9167V29.7381Z" fill="white"/>
<path d="M65.338 24H63.392V19.884H59.066V24H57.134V14.074H59.066V18.064H63.392V14.074H65.338V24ZM69.2736 21.998C69.619 22.3433 70.0343 22.516 70.5196 22.516C71.005 22.516 71.4156 22.3433 71.7516 21.998C72.097 21.6527 72.2696 21.172 72.2696 20.556C72.2696 19.94 72.097 19.4593 71.7516 19.114C71.4156 18.7687 71.005 18.596 70.5196 18.596C70.0343 18.596 69.619 18.7687 69.2736 19.114C68.9376 19.4593 68.7696 19.94 68.7696 20.556C68.7696 21.172 68.9376 21.6527 69.2736 21.998ZM67.9296 17.938C68.6203 17.2473 69.4836 16.902 70.5196 16.902C71.5556 16.902 72.4143 17.2473 73.0956 17.938C73.7863 18.6287 74.1316 19.5013 74.1316 20.556C74.1316 21.6107 73.7863 22.4833 73.0956 23.174C72.4143 23.8647 71.5556 24.21 70.5196 24.21C69.4836 24.21 68.6203 23.8647 67.9296 23.174C67.2483 22.4833 66.9076 21.6107 66.9076 20.556C66.9076 19.5013 67.2483 18.6287 67.9296 17.938ZM77.4634 24H75.6014V17.112H77.3794V17.952C77.5568 17.6347 77.8368 17.3827 78.2194 17.196C78.6021 17.0093 78.9941 16.916 79.3954 16.916C80.3941 16.916 81.0754 17.2987 81.4394 18.064C81.9341 17.2987 82.6621 16.916 83.6234 16.916C84.3234 16.916 84.9114 17.1353 85.3874 17.574C85.8728 18.0127 86.1154 18.666 86.1154 19.534V24H84.3094V19.912C84.3094 19.52 84.2068 19.2073 84.0014 18.974C83.8054 18.7313 83.5021 18.61 83.0914 18.61C82.7088 18.61 82.4008 18.7407 82.1674 19.002C81.9341 19.2633 81.8174 19.5853 81.8174 19.968V24H79.9694V19.912C79.9694 19.52 79.8668 19.2073 79.6614 18.974C79.4561 18.7313 79.1528 18.61 78.7514 18.61C78.3594 18.61 78.0468 18.7407 77.8134 19.002C77.5801 19.254 77.4634 19.576 77.4634 19.968V24ZM89.3598 19.772H92.4398C92.4211 19.3893 92.2811 19.0673 92.0198 18.806C91.7678 18.5447 91.3945 18.414 90.8998 18.414C90.4518 18.414 90.0878 18.554 89.8078 18.834C89.5278 19.114 89.3785 19.4267 89.3598 19.772ZM92.6218 21.564L94.1758 22.026C93.9891 22.6607 93.6205 23.1833 93.0698 23.594C92.5285 24.0047 91.8518 24.21 91.0398 24.21C90.0505 24.21 89.2105 23.8787 88.5198 23.216C87.8291 22.544 87.4838 21.648 87.4838 20.528C87.4838 19.464 87.8198 18.596 88.4918 17.924C89.1638 17.2427 89.9571 16.902 90.8718 16.902C91.9358 16.902 92.7665 17.2193 93.3638 17.854C93.9705 18.4887 94.2738 19.3613 94.2738 20.472C94.2738 20.5467 94.2691 20.6307 94.2598 20.724C94.2598 20.8173 94.2598 20.892 94.2598 20.948L94.2458 21.046H89.3178C89.3365 21.494 89.5138 21.8673 89.8498 22.166C90.1858 22.4647 90.5871 22.614 91.0538 22.614C91.8471 22.614 92.3698 22.264 92.6218 21.564Z" fill="white"/>
</svg>
