<svg width="230" height="42" viewBox="0 0 230 42" fill="none" xmlns="http://www.w3.org/2000/svg">
<rect x="23" y="5" width="32" height="32" fill="url(#paint0_linear_2601_6)"/>
<path d="M44.7971 15.727C44.0807 15.0042 43.1189 14.5771 42.1024 14.5302C41.0859 14.4833 40.0889 14.8202 39.3091 15.474C39.2194 15.5417 39.1113 15.5807 38.9991 15.586C38.8861 15.5827 38.7772 15.5434 38.6881 15.474C37.9086 14.8198 36.9117 14.4827 35.8952 14.5296C34.8787 14.5764 33.917 15.0039 33.2011 15.727C32.4311 16.497 32.0071 17.521 32.0071 18.61C32.0071 19.699 32.4311 20.723 33.1751 21.465L37.6371 26.688C37.8052 26.8852 38.0142 27.0436 38.2495 27.1522C38.4848 27.2609 38.7409 27.3171 39.0001 27.3171C39.2593 27.3171 39.5154 27.2609 39.7507 27.1522C39.986 27.0436 40.1949 26.8852 40.3631 26.688L44.7981 21.493C45.1779 21.1153 45.4792 20.666 45.6843 20.1711C45.8894 19.6763 45.9944 19.1457 45.9931 18.61C45.9939 18.0743 45.8887 17.5437 45.6834 17.0489C45.4782 16.554 45.1769 16.1048 44.7971 15.727Z" fill="#C4C4C4"/>
<g clip-path="url(#clip0_2601_6)">
<path opacity="0.7" d="M78.8694 25H72.5134V15.074H74.4454V23.152H78.8694V25ZM82.0694 25H80.2074V18.112H82.0694V25ZM79.9834 15.858C79.9834 15.5407 80.0954 15.27 80.3194 15.046C80.5434 14.8127 80.814 14.696 81.1314 14.696C81.4487 14.696 81.7194 14.808 81.9434 15.032C82.1674 15.256 82.2794 15.5313 82.2794 15.858C82.2794 16.166 82.1674 16.432 81.9434 16.656C81.7194 16.88 81.4487 16.992 81.1314 16.992C80.814 16.992 80.5434 16.88 80.3194 16.656C80.0954 16.432 79.9834 16.166 79.9834 15.858ZM90.7408 18.112L87.9828 21.01L90.7968 25H88.5148L86.6948 22.368L85.9248 23.18V25H84.0628V14.864H85.9248V20.674L88.3048 18.112H90.7408ZM92.9267 20.772H96.0067C95.988 20.3893 95.848 20.0673 95.5867 19.806C95.3347 19.5447 94.9614 19.414 94.4667 19.414C94.0187 19.414 93.6547 19.554 93.3747 19.834C93.0947 20.114 92.9454 20.4267 92.9267 20.772ZM96.1887 22.564L97.7427 23.026C97.556 23.6607 97.1874 24.1833 96.6367 24.594C96.0954 25.0047 95.4187 25.21 94.6067 25.21C93.6174 25.21 92.7774 24.8787 92.0867 24.216C91.396 23.544 91.0507 22.648 91.0507 21.528C91.0507 20.464 91.3867 19.596 92.0587 18.924C92.7307 18.2427 93.524 17.902 94.4387 17.902C95.5027 17.902 96.3334 18.2193 96.9307 18.854C97.5374 19.4887 97.8407 20.3613 97.8407 21.472C97.8407 21.5467 97.836 21.6307 97.8267 21.724C97.8267 21.8173 97.8267 21.892 97.8267 21.948L97.8127 22.046H92.8847C92.9034 22.494 93.0807 22.8673 93.4167 23.166C93.7527 23.4647 94.154 23.614 94.6207 23.614C95.414 23.614 95.9367 23.264 96.1887 22.564ZM105.873 14.864V23.754C105.873 24.2113 105.892 24.6267 105.929 25H104.151C104.104 24.7667 104.081 24.5007 104.081 24.202C103.922 24.4913 103.67 24.7247 103.325 24.902C102.989 25.0793 102.597 25.168 102.149 25.168C101.169 25.168 100.362 24.8273 99.727 24.146C99.1017 23.4553 98.789 22.5873 98.789 21.542C98.789 20.5247 99.097 19.6707 99.713 18.98C100.338 18.2893 101.132 17.944 102.093 17.944C103.082 17.944 103.731 18.2287 104.039 18.798V14.864H105.873ZM100.665 21.542C100.665 22.1487 100.824 22.6293 101.141 22.984C101.458 23.3293 101.869 23.502 102.373 23.502C102.868 23.502 103.274 23.3247 103.591 22.97C103.908 22.6153 104.067 22.1347 104.067 21.528C104.067 20.9307 103.908 20.464 103.591 20.128C103.274 19.7827 102.868 19.61 102.373 19.61C101.878 19.61 101.468 19.7827 101.141 20.128C100.824 20.4733 100.665 20.9447 100.665 21.542ZM118.17 17.44L116.434 17.972C116.369 17.6173 116.191 17.2953 115.902 17.006C115.613 16.7167 115.188 16.572 114.628 16.572C114.171 16.572 113.797 16.698 113.508 16.95C113.219 17.1927 113.074 17.4867 113.074 17.832C113.074 18.4387 113.433 18.812 114.152 18.952L115.538 19.218C116.415 19.386 117.097 19.736 117.582 20.268C118.067 20.8 118.31 21.4253 118.31 22.144C118.31 22.9653 117.983 23.684 117.33 24.3C116.686 24.9067 115.818 25.21 114.726 25.21C114.101 25.21 113.536 25.1167 113.032 24.93C112.528 24.7433 112.122 24.496 111.814 24.188C111.506 23.8707 111.263 23.5393 111.086 23.194C110.918 22.8393 110.815 22.4753 110.778 22.102L112.57 21.626C112.617 22.158 112.822 22.6013 113.186 22.956C113.559 23.3107 114.077 23.488 114.74 23.488C115.244 23.488 115.636 23.376 115.916 23.152C116.205 22.928 116.35 22.634 116.35 22.27C116.35 21.9807 116.243 21.7333 116.028 21.528C115.823 21.3133 115.529 21.1687 115.146 21.094L113.76 20.814C112.957 20.646 112.323 20.3147 111.856 19.82C111.389 19.3253 111.156 18.7093 111.156 17.972C111.156 17.0947 111.492 16.3573 112.164 15.76C112.845 15.1627 113.662 14.864 114.614 14.864C115.183 14.864 115.692 14.9433 116.14 15.102C116.588 15.2607 116.947 15.4753 117.218 15.746C117.489 16.0073 117.699 16.278 117.848 16.558C117.997 16.838 118.105 17.132 118.17 17.44ZM121.594 22.998C121.94 23.3433 122.355 23.516 122.84 23.516C123.326 23.516 123.736 23.3433 124.072 22.998C124.418 22.6527 124.59 22.172 124.59 21.556C124.59 20.94 124.418 20.4593 124.072 20.114C123.736 19.7687 123.326 19.596 122.84 19.596C122.355 19.596 121.94 19.7687 121.594 20.114C121.258 20.4593 121.09 20.94 121.09 21.556C121.09 22.172 121.258 22.6527 121.594 22.998ZM120.25 18.938C120.941 18.2473 121.804 17.902 122.84 17.902C123.876 17.902 124.735 18.2473 125.416 18.938C126.107 19.6287 126.452 20.5013 126.452 21.556C126.452 22.6107 126.107 23.4833 125.416 24.174C124.735 24.8647 123.876 25.21 122.84 25.21C121.804 25.21 120.941 24.8647 120.25 24.174C119.569 23.4833 119.228 22.6107 119.228 21.556C119.228 20.5013 119.569 19.6287 120.25 18.938ZM129.784 21.038V25H127.922V18.112H129.728V18.966C129.924 18.63 130.204 18.3733 130.568 18.196C130.932 18.0187 131.315 17.93 131.716 17.93C132.528 17.93 133.144 18.1867 133.564 18.7C133.994 19.204 134.208 19.8573 134.208 20.66V25H132.346V20.982C132.346 20.5713 132.239 20.24 132.024 19.988C131.819 19.736 131.502 19.61 131.072 19.61C130.68 19.61 130.368 19.7453 130.134 20.016C129.901 20.2867 129.784 20.6273 129.784 21.038ZM135.608 25.378L137.288 24.93C137.353 25.3127 137.531 25.6253 137.82 25.868C138.109 26.1107 138.469 26.232 138.898 26.232C140.121 26.232 140.732 25.5927 140.732 24.314V23.81C140.573 24.062 140.331 24.272 140.004 24.44C139.677 24.608 139.281 24.692 138.814 24.692C137.899 24.692 137.134 24.3747 136.518 23.74C135.911 23.1053 135.608 22.3073 135.608 21.346C135.608 20.4127 135.911 19.6193 136.518 18.966C137.125 18.3127 137.89 17.986 138.814 17.986C139.318 17.986 139.738 18.0793 140.074 18.266C140.41 18.4433 140.643 18.6627 140.774 18.924V18.112H142.566V24.258C142.566 25.294 142.267 26.1527 141.67 26.834C141.073 27.5247 140.167 27.87 138.954 27.87C138.049 27.87 137.288 27.6273 136.672 27.142C136.065 26.6567 135.711 26.0687 135.608 25.378ZM139.136 23.096C139.612 23.096 139.999 22.9373 140.298 22.62C140.606 22.3027 140.76 21.878 140.76 21.346C140.76 20.8233 140.601 20.4033 140.284 20.086C139.976 19.7687 139.593 19.61 139.136 19.61C138.66 19.61 138.263 19.7687 137.946 20.086C137.638 20.4033 137.484 20.8233 137.484 21.346C137.484 21.878 137.638 22.3027 137.946 22.62C138.254 22.9373 138.651 23.096 139.136 23.096ZM143.864 23.082L145.46 22.732C145.478 23.0307 145.595 23.2827 145.81 23.488C146.034 23.684 146.337 23.782 146.72 23.782C147.009 23.782 147.233 23.7167 147.392 23.586C147.55 23.4553 147.63 23.292 147.63 23.096C147.63 22.7507 147.382 22.5267 146.888 22.424L145.978 22.214C145.334 22.074 144.848 21.822 144.522 21.458C144.204 21.094 144.046 20.66 144.046 20.156C144.046 19.5307 144.288 18.9987 144.774 18.56C145.268 18.1213 145.884 17.902 146.622 17.902C147.088 17.902 147.499 17.972 147.854 18.112C148.208 18.2427 148.484 18.4153 148.68 18.63C148.876 18.8353 149.025 19.0453 149.128 19.26C149.23 19.4747 149.296 19.6847 149.324 19.89L147.77 20.24C147.732 19.9973 147.62 19.7827 147.434 19.596C147.256 19.4093 146.99 19.316 146.636 19.316C146.393 19.316 146.183 19.3813 146.006 19.512C145.838 19.6427 145.754 19.806 145.754 20.002C145.754 20.338 145.964 20.5433 146.384 20.618L147.364 20.828C148.026 20.968 148.53 21.2247 148.876 21.598C149.23 21.9713 149.408 22.4193 149.408 22.942C149.408 23.558 149.174 24.09 148.708 24.538C148.241 24.986 147.583 25.21 146.734 25.21C146.248 25.21 145.814 25.14 145.432 25C145.049 24.8507 144.75 24.664 144.536 24.44C144.33 24.2067 144.172 23.978 144.06 23.754C143.957 23.5207 143.892 23.2967 143.864 23.082Z" fill="white"/>
</g>
<defs>
<linearGradient id="paint0_linear_2601_6" x1="23" y1="5" x2="50.5" y2="37" gradientUnits="userSpaceOnUse">
<stop stop-color="#27148F"/>
<stop offset="0.65219" stop-color="#605F9E"/>
<stop offset="1" stop-color="#86979A"/>
</linearGradient>
<clipPath id="clip0_2601_6">
<rect width="134.828" height="16" fill="white" transform="translate(71.3794 13)"/>
</clipPath>
</defs>
</svg>
