<svg width="1470" height="36" viewBox="0 0 1470 36" fill="none" xmlns="http://www.w3.org/2000/svg">
<line opacity="0.1" x1="8" y1="26.5" x2="1641" y2="26.5" stroke="white"/>
<path opacity="0.7" d="M1.88405 24.0265V22.8105H4.18805L4.76405 20.1385H6.10805L5.53205 22.8105H7.80405L8.38005 20.1385H9.72405L9.14805 22.8105H11.308V24.0265H8.89205L8.34805 26.5865H10.524V27.8025H8.07605L7.50005 30.5065H6.15605L6.73205 27.8025H4.46005L3.88405 30.5065H2.54005L3.11605 27.8025H1.10005V26.5865H3.38805L3.93205 24.0265H1.88405ZM5.27605 24.0265L4.73205 26.5865H7.00405L7.54805 24.0265H5.27605Z" fill="white"/>
<path opacity="0.7" d="M32.484 23.1933H29.64V30.6093H28.464V23.1933H25.62V22.1013H32.484V23.1933ZM36.2016 30.6093H35.0016V22.1013H36.2016V30.6093ZM45.5888 23.1933H42.7448V30.6093H41.5688V23.1933H38.7248V22.1013H45.5888V23.1933ZM53.3024 30.6093H48.1064V22.1013H49.2824V29.5053H53.3024V30.6093ZM61.1726 30.6093H56.0006V22.1013H61.1726V23.1933H57.1766V25.8093H60.8006V26.9133H57.1766V29.5173H61.1726V30.6093Z" fill="white"/>
<path opacity="0.7" d="M628.272 30.6093L627.348 28.2333H623.58L622.68 30.6093H621.42L624.804 22.1013H626.16L629.544 30.6093H628.272ZM625.452 23.3253L624 27.1413H626.928L625.452 23.3253ZM637.263 30.6093H632.067V22.1013H633.243V29.5053H637.263V30.6093ZM639.961 22.1013H642.733C643.525 22.1013 644.149 22.3133 644.605 22.7373C645.069 23.1613 645.301 23.7173 645.301 24.4053C645.301 24.8453 645.185 25.2253 644.953 25.5453C644.721 25.8653 644.413 26.0973 644.029 26.2413C644.501 26.3613 644.873 26.6133 645.145 26.9973C645.425 27.3733 645.565 27.8053 645.565 28.2933C645.565 28.9653 645.321 29.5213 644.833 29.9613C644.345 30.3933 643.713 30.6093 642.937 30.6093H639.961V22.1013ZM641.137 25.8213H642.601C643.065 25.8213 643.433 25.6973 643.705 25.4493C643.977 25.1933 644.113 24.8653 644.113 24.4653C644.113 24.0573 643.973 23.7333 643.693 23.4933C643.413 23.2533 643.033 23.1333 642.553 23.1333H641.137V25.8213ZM641.137 29.5773H642.769C643.249 29.5773 643.633 29.4533 643.921 29.2053C644.217 28.9573 644.365 28.6293 644.365 28.2213C644.365 27.7973 644.233 27.4613 643.969 27.2133C643.705 26.9573 643.321 26.8293 642.817 26.8293H641.137V29.5773ZM653.636 29.9733C653.068 30.5173 652.336 30.7893 651.44 30.7893C650.544 30.7893 649.808 30.5173 649.232 29.9733C648.664 29.4293 648.38 28.6733 648.38 27.7053V22.1013H649.544V27.6693C649.544 28.3173 649.708 28.8173 650.036 29.1693C650.372 29.5213 650.84 29.6973 651.44 29.6973C652.04 29.6973 652.504 29.5213 652.832 29.1693C653.16 28.8173 653.324 28.3173 653.324 27.6693V22.1013H654.5V27.7053C654.5 28.6733 654.212 29.4293 653.636 29.9733ZM667.051 30.6093H665.887V23.9853L662.983 30.6093H661.903L659.023 23.9853V30.6093H657.859V22.1013H659.455L662.455 29.0253L665.479 22.1013H667.051V30.6093Z" fill="white"/>
<path opacity="0.7" d="M1025.86 29.5653H1027.6C1028.43 29.5653 1029.12 29.2893 1029.66 28.7373C1030.21 28.1853 1030.49 27.3973 1030.49 26.3733C1030.49 25.3413 1030.22 24.5453 1029.67 23.9853C1029.14 23.4253 1028.45 23.1453 1027.62 23.1453H1025.86V29.5653ZM1027.63 30.6093H1024.68V22.1013H1027.66C1028.8 22.1013 1029.76 22.4813 1030.54 23.2413C1031.31 23.9933 1031.7 25.0373 1031.7 26.3733C1031.7 27.7013 1031.31 28.7413 1030.52 29.4933C1029.74 30.2373 1028.78 30.6093 1027.63 30.6093ZM1040.22 30.6093L1039.3 28.2333H1035.53L1034.63 30.6093H1033.37L1036.76 22.1013H1038.11L1041.5 30.6093H1040.22ZM1037.4 23.3253L1035.95 27.1413H1038.88L1037.4 23.3253ZM1049.14 23.1933H1046.29V30.6093H1045.12V23.1933H1042.27V22.1013H1049.14V23.1933ZM1056.83 30.6093H1051.66V22.1013H1056.83V23.1933H1052.83V25.8093H1056.46V26.9133H1052.83V29.5173H1056.83V30.6093ZM1070.16 30.6093L1069.24 28.2333H1065.47L1064.57 30.6093H1063.31L1066.69 22.1013H1068.05L1071.43 30.6093H1070.16ZM1067.34 23.3253L1065.89 27.1413H1068.82L1067.34 23.3253ZM1075.13 29.5653H1076.87C1077.7 29.5653 1078.39 29.2893 1078.94 28.7373C1079.49 28.1853 1079.76 27.3973 1079.76 26.3733C1079.76 25.3413 1079.49 24.5453 1078.95 23.9853C1078.41 23.4253 1077.73 23.1453 1076.9 23.1453H1075.13V29.5653ZM1076.91 30.6093H1073.96V22.1013H1076.93C1078.08 22.1013 1079.04 22.4813 1079.81 23.2413C1080.59 23.9933 1080.98 25.0373 1080.98 26.3733C1080.98 27.7013 1080.58 28.7413 1079.8 29.4933C1079.02 30.2373 1078.05 30.6093 1076.91 30.6093ZM1085.09 29.5653H1086.83C1087.66 29.5653 1088.35 29.2893 1088.89 28.7373C1089.44 28.1853 1089.72 27.3973 1089.72 26.3733C1089.72 25.3413 1089.45 24.5453 1088.9 23.9853C1088.37 23.4253 1087.68 23.1453 1086.85 23.1453H1085.09V29.5653ZM1086.86 30.6093H1083.91V22.1013H1086.89C1088.03 22.1013 1088.99 22.4813 1089.77 23.2413C1090.54 23.9933 1090.93 25.0373 1090.93 26.3733C1090.93 27.7013 1090.54 28.7413 1089.76 29.4933C1088.97 30.2373 1088.01 30.6093 1086.86 30.6093ZM1099.04 30.6093H1093.87V22.1013H1099.04V23.1933H1095.05V25.8093H1098.67V26.9133H1095.05V29.5173H1099.04V30.6093ZM1103.34 29.5653H1105.08C1105.91 29.5653 1106.6 29.2893 1107.14 28.7373C1107.69 28.1853 1107.97 27.3973 1107.97 26.3733C1107.97 25.3413 1107.7 24.5453 1107.15 23.9853C1106.62 23.4253 1105.93 23.1453 1105.1 23.1453H1103.34V29.5653ZM1105.11 30.6093H1102.16V22.1013H1105.14C1106.28 22.1013 1107.24 22.4813 1108.02 23.2413C1108.79 23.9933 1109.18 25.0373 1109.18 26.3733C1109.18 27.7013 1108.79 28.7413 1108.01 29.4933C1107.22 30.2373 1106.26 30.6093 1105.11 30.6093Z" fill="white"/>
</svg>
