<svg width="230" height="1080" viewBox="0 0 230 1080" fill="none" xmlns="http://www.w3.org/2000/svg">
<rect width="230" height="1080" fill="black"/>
<path d="M24 348H208V349H24V348Z" fill="#282828"/>
<path d="M26.64 235.368H27.948C28.356 235.368 28.68 235.26 28.92 235.044C29.16 234.82 29.28 234.524 29.28 234.156C29.28 233.78 29.16 233.484 28.92 233.268C28.688 233.044 28.364 232.932 27.948 232.932H26.64V235.368ZM28.152 236.796H26.628V240H24.972V231.492H28.152C28.984 231.492 29.656 231.74 30.168 232.236C30.688 232.732 30.948 233.368 30.948 234.144C30.948 234.92 30.688 235.556 30.168 236.052C29.656 236.548 28.984 236.796 28.152 236.796ZM38.8622 240H33.4142V231.492H35.0702V238.416H38.8622V240ZM47.1948 240L46.4868 238.056H43.0308L42.3228 240H40.5708L43.8348 231.492H45.7548L48.9948 240H47.1948ZM44.7588 233.328L43.5828 236.544H45.9348L44.7588 233.328ZM52.434 236.424L49.47 231.492H51.414L53.322 234.864L55.23 231.492H57.09L54.09 236.424V240H52.434V236.424ZM64.8333 240H59.3853V231.492H61.0413V238.416H64.8333V240ZM68.9801 240H67.3001V231.492H68.9801V240ZM77.8452 233.52L76.3572 233.976C76.3012 233.672 76.1492 233.396 75.9012 233.148C75.6532 232.9 75.2892 232.776 74.8092 232.776C74.4172 232.776 74.0972 232.884 73.8492 233.1C73.6012 233.308 73.4772 233.56 73.4772 233.856C73.4772 234.376 73.7852 234.696 74.4012 234.816L75.5892 235.044C76.3412 235.188 76.9252 235.488 77.3412 235.944C77.7572 236.4 77.9652 236.936 77.9652 237.552C77.9652 238.256 77.6852 238.872 77.1252 239.4C76.5732 239.92 75.8292 240.18 74.8932 240.18C74.3572 240.18 73.8732 240.1 73.4412 239.94C73.0092 239.78 72.6612 239.568 72.3972 239.304C72.1332 239.032 71.9252 238.748 71.7732 238.452C71.6292 238.148 71.5412 237.836 71.5092 237.516L73.0452 237.108C73.0852 237.564 73.2612 237.944 73.5732 238.248C73.8932 238.552 74.3372 238.704 74.9052 238.704C75.3372 238.704 75.6732 238.608 75.9132 238.416C76.1612 238.224 76.2852 237.972 76.2852 237.66C76.2852 237.412 76.1932 237.2 76.0092 237.024C75.8332 236.84 75.5812 236.716 75.2532 236.652L74.0652 236.412C73.3772 236.268 72.8332 235.984 72.4332 235.56C72.0332 235.136 71.8332 234.608 71.8332 233.976C71.8332 233.224 72.1212 232.592 72.6972 232.08C73.2812 231.568 73.9812 231.312 74.7972 231.312C75.2852 231.312 75.7212 231.38 76.1052 231.516C76.4892 231.652 76.7972 231.836 77.0292 232.068C77.2612 232.292 77.4412 232.524 77.5692 232.764C77.6972 233.004 77.7892 233.256 77.8452 233.52ZM86.804 233.064H84.116V240H82.448V233.064H79.76V231.492H86.804V233.064ZM94.8937 233.52L93.4057 233.976C93.3497 233.672 93.1977 233.396 92.9497 233.148C92.7017 232.9 92.3377 232.776 91.8577 232.776C91.4657 232.776 91.1457 232.884 90.8977 233.1C90.6497 233.308 90.5257 233.56 90.5257 233.856C90.5257 234.376 90.8337 234.696 91.4497 234.816L92.6377 235.044C93.3897 235.188 93.9737 235.488 94.3897 235.944C94.8057 236.4 95.0137 236.936 95.0137 237.552C95.0137 238.256 94.7337 238.872 94.1737 239.4C93.6217 239.92 92.8777 240.18 91.9417 240.18C91.4057 240.18 90.9217 240.1 90.4897 239.94C90.0577 239.78 89.7097 239.568 89.4457 239.304C89.1817 239.032 88.9737 238.748 88.8217 238.452C88.6777 238.148 88.5897 237.836 88.5577 237.516L90.0937 237.108C90.1337 237.564 90.3097 237.944 90.6217 238.248C90.9417 238.552 91.3857 238.704 91.9537 238.704C92.3857 238.704 92.7217 238.608 92.9617 238.416C93.2097 238.224 93.3337 237.972 93.3337 237.66C93.3337 237.412 93.2417 237.2 93.0577 237.024C92.8817 236.84 92.6297 236.716 92.3017 236.652L91.1137 236.412C90.4257 236.268 89.8817 235.984 89.4817 235.56C89.0817 235.136 88.8817 234.608 88.8817 233.976C88.8817 233.224 89.1697 232.592 89.7457 232.08C90.3297 231.568 91.0297 231.312 91.8457 231.312C92.3337 231.312 92.7697 231.38 93.1537 231.516C93.5377 231.652 93.8457 231.836 94.0777 232.068C94.3097 232.292 94.4897 232.524 94.6177 232.764C94.7457 233.004 94.8377 233.256 94.8937 233.52Z" fill="#B3B3B3"/>
<rect x="23" y="303" width="32" height="32" fill="url(#paint0_linear_8_296)"/>
<path d="M44.7971 313.727C44.0807 313.004 43.1189 312.577 42.1024 312.53C41.0859 312.483 40.0889 312.82 39.3091 313.474C39.2194 313.542 39.1113 313.581 38.9991 313.586C38.8861 313.583 38.7772 313.543 38.6881 313.474C37.9086 312.82 36.9117 312.483 35.8952 312.53C34.8787 312.576 33.917 313.004 33.2011 313.727C32.4311 314.497 32.0071 315.521 32.0071 316.61C32.0071 317.699 32.4311 318.723 33.1751 319.465L37.6371 324.688C37.8052 324.885 38.0142 325.044 38.2495 325.152C38.4848 325.261 38.7409 325.317 39.0001 325.317C39.2593 325.317 39.5154 325.261 39.7507 325.152C39.986 325.044 40.1949 324.885 40.3631 324.688L44.7981 319.493C45.1779 319.115 45.4792 318.666 45.6843 318.171C45.8894 317.676 45.9944 317.146 45.9931 316.61C45.9939 316.074 45.8887 315.544 45.6834 315.049C45.4782 314.554 45.1769 314.105 44.7971 313.727Z" fill="#C4C4C4"/>
<g clip-path="url(#clip0_8_296)">
<path opacity="0.7" d="M78.8694 323H72.5134V313.074H74.4454V321.152H78.8694V323ZM82.0694 323H80.2074V316.112H82.0694V323ZM79.9834 313.858C79.9834 313.541 80.0954 313.27 80.3194 313.046C80.5434 312.813 80.814 312.696 81.1314 312.696C81.4487 312.696 81.7194 312.808 81.9434 313.032C82.1674 313.256 82.2794 313.531 82.2794 313.858C82.2794 314.166 82.1674 314.432 81.9434 314.656C81.7194 314.88 81.4487 314.992 81.1314 314.992C80.814 314.992 80.5434 314.88 80.3194 314.656C80.0954 314.432 79.9834 314.166 79.9834 313.858ZM90.7408 316.112L87.9828 319.01L90.7968 323H88.5148L86.6948 320.368L85.9248 321.18V323H84.0628V312.864H85.9248V318.674L88.3048 316.112H90.7408ZM92.9267 318.772H96.0067C95.988 318.389 95.848 318.067 95.5867 317.806C95.3347 317.545 94.9614 317.414 94.4667 317.414C94.0187 317.414 93.6547 317.554 93.3747 317.834C93.0947 318.114 92.9454 318.427 92.9267 318.772ZM96.1887 320.564L97.7427 321.026C97.556 321.661 97.1874 322.183 96.6367 322.594C96.0954 323.005 95.4187 323.21 94.6067 323.21C93.6174 323.21 92.7774 322.879 92.0867 322.216C91.396 321.544 91.0507 320.648 91.0507 319.528C91.0507 318.464 91.3867 317.596 92.0587 316.924C92.7307 316.243 93.524 315.902 94.4387 315.902C95.5027 315.902 96.3334 316.219 96.9307 316.854C97.5374 317.489 97.8407 318.361 97.8407 319.472C97.8407 319.547 97.836 319.631 97.8267 319.724C97.8267 319.817 97.8267 319.892 97.8267 319.948L97.8127 320.046H92.8847C92.9034 320.494 93.0807 320.867 93.4167 321.166C93.7527 321.465 94.154 321.614 94.6207 321.614C95.414 321.614 95.9367 321.264 96.1887 320.564ZM105.873 312.864V321.754C105.873 322.211 105.892 322.627 105.929 323H104.151C104.104 322.767 104.081 322.501 104.081 322.202C103.922 322.491 103.67 322.725 103.325 322.902C102.989 323.079 102.597 323.168 102.149 323.168C101.169 323.168 100.362 322.827 99.727 322.146C99.1017 321.455 98.789 320.587 98.789 319.542C98.789 318.525 99.097 317.671 99.713 316.98C100.338 316.289 101.132 315.944 102.093 315.944C103.082 315.944 103.731 316.229 104.039 316.798V312.864H105.873ZM100.665 319.542C100.665 320.149 100.824 320.629 101.141 320.984C101.458 321.329 101.869 321.502 102.373 321.502C102.868 321.502 103.274 321.325 103.591 320.97C103.908 320.615 104.067 320.135 104.067 319.528C104.067 318.931 103.908 318.464 103.591 318.128C103.274 317.783 102.868 317.61 102.373 317.61C101.878 317.61 101.468 317.783 101.141 318.128C100.824 318.473 100.665 318.945 100.665 319.542ZM118.17 315.44L116.434 315.972C116.369 315.617 116.191 315.295 115.902 315.006C115.613 314.717 115.188 314.572 114.628 314.572C114.171 314.572 113.797 314.698 113.508 314.95C113.219 315.193 113.074 315.487 113.074 315.832C113.074 316.439 113.433 316.812 114.152 316.952L115.538 317.218C116.415 317.386 117.097 317.736 117.582 318.268C118.067 318.8 118.31 319.425 118.31 320.144C118.31 320.965 117.983 321.684 117.33 322.3C116.686 322.907 115.818 323.21 114.726 323.21C114.101 323.21 113.536 323.117 113.032 322.93C112.528 322.743 112.122 322.496 111.814 322.188C111.506 321.871 111.263 321.539 111.086 321.194C110.918 320.839 110.815 320.475 110.778 320.102L112.57 319.626C112.617 320.158 112.822 320.601 113.186 320.956C113.559 321.311 114.077 321.488 114.74 321.488C115.244 321.488 115.636 321.376 115.916 321.152C116.205 320.928 116.35 320.634 116.35 320.27C116.35 319.981 116.243 319.733 116.028 319.528C115.823 319.313 115.529 319.169 115.146 319.094L113.76 318.814C112.957 318.646 112.323 318.315 111.856 317.82C111.389 317.325 111.156 316.709 111.156 315.972C111.156 315.095 111.492 314.357 112.164 313.76C112.845 313.163 113.662 312.864 114.614 312.864C115.183 312.864 115.692 312.943 116.14 313.102C116.588 313.261 116.947 313.475 117.218 313.746C117.489 314.007 117.699 314.278 117.848 314.558C117.997 314.838 118.105 315.132 118.17 315.44ZM121.594 320.998C121.94 321.343 122.355 321.516 122.84 321.516C123.326 321.516 123.736 321.343 124.072 320.998C124.418 320.653 124.59 320.172 124.59 319.556C124.59 318.94 124.418 318.459 124.072 318.114C123.736 317.769 123.326 317.596 122.84 317.596C122.355 317.596 121.94 317.769 121.594 318.114C121.258 318.459 121.09 318.94 121.09 319.556C121.09 320.172 121.258 320.653 121.594 320.998ZM120.25 316.938C120.941 316.247 121.804 315.902 122.84 315.902C123.876 315.902 124.735 316.247 125.416 316.938C126.107 317.629 126.452 318.501 126.452 319.556C126.452 320.611 126.107 321.483 125.416 322.174C124.735 322.865 123.876 323.21 122.84 323.21C121.804 323.21 120.941 322.865 120.25 322.174C119.569 321.483 119.228 320.611 119.228 319.556C119.228 318.501 119.569 317.629 120.25 316.938ZM129.784 319.038V323H127.922V316.112H129.728V316.966C129.924 316.63 130.204 316.373 130.568 316.196C130.932 316.019 131.315 315.93 131.716 315.93C132.528 315.93 133.144 316.187 133.564 316.7C133.994 317.204 134.208 317.857 134.208 318.66V323H132.346V318.982C132.346 318.571 132.239 318.24 132.024 317.988C131.819 317.736 131.502 317.61 131.072 317.61C130.68 317.61 130.368 317.745 130.134 318.016C129.901 318.287 129.784 318.627 129.784 319.038ZM135.608 323.378L137.288 322.93C137.353 323.313 137.531 323.625 137.82 323.868C138.109 324.111 138.469 324.232 138.898 324.232C140.121 324.232 140.732 323.593 140.732 322.314V321.81C140.573 322.062 140.331 322.272 140.004 322.44C139.677 322.608 139.281 322.692 138.814 322.692C137.899 322.692 137.134 322.375 136.518 321.74C135.911 321.105 135.608 320.307 135.608 319.346C135.608 318.413 135.911 317.619 136.518 316.966C137.125 316.313 137.89 315.986 138.814 315.986C139.318 315.986 139.738 316.079 140.074 316.266C140.41 316.443 140.643 316.663 140.774 316.924V316.112H142.566V322.258C142.566 323.294 142.267 324.153 141.67 324.834C141.073 325.525 140.167 325.87 138.954 325.87C138.049 325.87 137.288 325.627 136.672 325.142C136.065 324.657 135.711 324.069 135.608 323.378ZM139.136 321.096C139.612 321.096 139.999 320.937 140.298 320.62C140.606 320.303 140.76 319.878 140.76 319.346C140.76 318.823 140.601 318.403 140.284 318.086C139.976 317.769 139.593 317.61 139.136 317.61C138.66 317.61 138.263 317.769 137.946 318.086C137.638 318.403 137.484 318.823 137.484 319.346C137.484 319.878 137.638 320.303 137.946 320.62C138.254 320.937 138.651 321.096 139.136 321.096ZM143.864 321.082L145.46 320.732C145.478 321.031 145.595 321.283 145.81 321.488C146.034 321.684 146.337 321.782 146.72 321.782C147.009 321.782 147.233 321.717 147.392 321.586C147.55 321.455 147.63 321.292 147.63 321.096C147.63 320.751 147.382 320.527 146.888 320.424L145.978 320.214C145.334 320.074 144.848 319.822 144.522 319.458C144.204 319.094 144.046 318.66 144.046 318.156C144.046 317.531 144.288 316.999 144.774 316.56C145.268 316.121 145.884 315.902 146.622 315.902C147.088 315.902 147.499 315.972 147.854 316.112C148.208 316.243 148.484 316.415 148.68 316.63C148.876 316.835 149.025 317.045 149.128 317.26C149.23 317.475 149.296 317.685 149.324 317.89L147.77 318.24C147.732 317.997 147.62 317.783 147.434 317.596C147.256 317.409 146.99 317.316 146.636 317.316C146.393 317.316 146.183 317.381 146.006 317.512C145.838 317.643 145.754 317.806 145.754 318.002C145.754 318.338 145.964 318.543 146.384 318.618L147.364 318.828C148.026 318.968 148.53 319.225 148.876 319.598C149.23 319.971 149.408 320.419 149.408 320.942C149.408 321.558 149.174 322.09 148.708 322.538C148.241 322.986 147.583 323.21 146.734 323.21C146.248 323.21 145.814 323.14 145.432 323C145.049 322.851 144.75 322.664 144.536 322.44C144.33 322.207 144.172 321.978 144.06 321.754C143.957 321.521 143.892 321.297 143.864 321.082Z" fill="white"/>
</g>
<g clip-path="url(#clip1_8_296)">
<rect opacity="0.7" x="23" y="261" width="32" height="32" fill="white"/>
<path d="M46 278.4H40.4V284H37.6V278.4H32V275.6H37.6V270H40.4V275.6H46V278.4Z" fill="black"/>
</g>
<path opacity="0.7" d="M77.0074 281.21C75.5794 281.21 74.3754 280.734 73.3954 279.782C72.4154 278.83 71.9254 277.584 71.9254 276.044C71.9254 274.513 72.4201 273.267 73.4094 272.306C74.4081 271.345 75.5981 270.864 76.9794 270.864C78.2487 270.864 79.2661 271.186 80.0314 271.83C80.8061 272.474 81.3054 273.249 81.5294 274.154L79.7094 274.728C79.5694 274.168 79.2754 273.697 78.8274 273.314C78.3794 272.922 77.7634 272.726 76.9794 272.726C76.1674 272.726 75.4534 273.015 74.8374 273.594C74.2307 274.173 73.9274 274.989 73.9274 276.044C73.9274 277.052 74.2261 277.85 74.8234 278.438C75.4301 279.026 76.1581 279.32 77.0074 279.32C77.7821 279.32 78.3981 279.119 78.8554 278.718C79.3221 278.317 79.6347 277.841 79.7934 277.29L81.5994 277.836C81.4967 278.237 81.3287 278.629 81.0954 279.012C80.8714 279.395 80.5774 279.754 80.2134 280.09C79.8494 280.426 79.3874 280.697 78.8274 280.902C78.2767 281.107 77.6701 281.21 77.0074 281.21ZM87.1418 274.084V275.96C86.9551 275.923 86.7684 275.904 86.5818 275.904C86.0498 275.904 85.6204 276.058 85.2938 276.366C84.9671 276.665 84.8038 277.159 84.8038 277.85V281H82.9418V274.112H84.7478V275.134C85.0838 274.415 85.7371 274.056 86.7078 274.056C86.8104 274.056 86.9551 274.065 87.1418 274.084ZM89.7412 276.772H92.8212C92.8025 276.389 92.6625 276.067 92.4012 275.806C92.1492 275.545 91.7758 275.414 91.2812 275.414C90.8332 275.414 90.4692 275.554 90.1892 275.834C89.9092 276.114 89.7598 276.427 89.7412 276.772ZM93.0032 278.564L94.5572 279.026C94.3705 279.661 94.0018 280.183 93.4512 280.594C92.9098 281.005 92.2332 281.21 91.4212 281.21C90.4318 281.21 89.5918 280.879 88.9012 280.216C88.2105 279.544 87.8652 278.648 87.8652 277.528C87.8652 276.464 88.2012 275.596 88.8732 274.924C89.5452 274.243 90.3385 273.902 91.2532 273.902C92.3172 273.902 93.1478 274.219 93.7452 274.854C94.3518 275.489 94.6552 276.361 94.6552 277.472C94.6552 277.547 94.6505 277.631 94.6412 277.724C94.6412 277.817 94.6412 277.892 94.6412 277.948L94.6272 278.046H89.6992C89.7178 278.494 89.8952 278.867 90.2312 279.166C90.5672 279.465 90.9685 279.614 91.4352 279.614C92.2285 279.614 92.7512 279.264 93.0032 278.564ZM95.7014 279.124C95.7014 278.536 95.8928 278.065 96.2754 277.71C96.6581 277.355 97.1528 277.131 97.7594 277.038L99.4534 276.786C99.7988 276.739 99.9714 276.576 99.9714 276.296C99.9714 276.035 99.8688 275.82 99.6634 275.652C99.4674 275.484 99.1828 275.4 98.8094 275.4C98.4174 275.4 98.1048 275.507 97.8714 275.722C97.6474 275.937 97.5214 276.203 97.4934 276.52L95.8414 276.17C95.9068 275.573 96.2008 275.045 96.7234 274.588C97.2461 274.131 97.9368 273.902 98.7954 273.902C99.8221 273.902 100.578 274.149 101.063 274.644C101.549 275.129 101.791 275.755 101.791 276.52V279.908C101.791 280.319 101.819 280.683 101.875 281H100.167C100.121 280.795 100.097 280.519 100.097 280.174C99.6588 280.855 98.9821 281.196 98.0674 281.196C97.3581 281.196 96.7841 280.991 96.3454 280.58C95.9161 280.169 95.7014 279.684 95.7014 279.124ZM98.4594 279.81C98.8981 279.81 99.2574 279.689 99.5374 279.446C99.8268 279.194 99.9714 278.783 99.9714 278.214V277.906L98.4174 278.144C97.8481 278.228 97.5634 278.517 97.5634 279.012C97.5634 279.236 97.6428 279.427 97.8014 279.586C97.9601 279.735 98.1794 279.81 98.4594 279.81ZM105.923 272.054V274.112H107.309V275.764H105.923V278.648C105.923 278.937 105.989 279.143 106.119 279.264C106.25 279.385 106.455 279.446 106.735 279.446C106.987 279.446 107.179 279.427 107.309 279.39V280.93C107.039 281.042 106.689 281.098 106.259 281.098C105.587 281.098 105.055 280.911 104.663 280.538C104.271 280.155 104.075 279.633 104.075 278.97V275.764H102.829V274.112H103.179C103.525 274.112 103.786 274.014 103.963 273.818C104.15 273.613 104.243 273.347 104.243 273.02V272.054H105.923ZM110.181 276.772H113.261C113.242 276.389 113.102 276.067 112.841 275.806C112.589 275.545 112.215 275.414 111.721 275.414C111.273 275.414 110.909 275.554 110.629 275.834C110.349 276.114 110.199 276.427 110.181 276.772ZM113.443 278.564L114.997 279.026C114.81 279.661 114.441 280.183 113.891 280.594C113.349 281.005 112.673 281.21 111.861 281.21C110.871 281.21 110.031 280.879 109.341 280.216C108.65 279.544 108.305 278.648 108.305 277.528C108.305 276.464 108.641 275.596 109.313 274.924C109.985 274.243 110.778 273.902 111.693 273.902C112.757 273.902 113.587 274.219 114.185 274.854C114.791 275.489 115.095 276.361 115.095 277.472C115.095 277.547 115.09 277.631 115.081 277.724C115.081 277.817 115.081 277.892 115.081 277.948L115.067 278.046H110.139C110.157 278.494 110.335 278.867 110.671 279.166C111.007 279.465 111.408 279.614 111.875 279.614C112.668 279.614 113.191 279.264 113.443 278.564ZM122.106 275.596H123.632C124.108 275.596 124.486 275.47 124.766 275.218C125.046 274.957 125.186 274.611 125.186 274.182C125.186 273.743 125.046 273.398 124.766 273.146C124.495 272.885 124.117 272.754 123.632 272.754H122.106V275.596ZM123.87 277.262H122.092V281H120.16V271.074H123.87C124.841 271.074 125.625 271.363 126.222 271.942C126.829 272.521 127.132 273.263 127.132 274.168C127.132 275.073 126.829 275.815 126.222 276.394C125.625 276.973 124.841 277.262 123.87 277.262ZM130.276 281H128.414V270.864H130.276V281ZM131.809 279.124C131.809 278.536 132 278.065 132.383 277.71C132.766 277.355 133.26 277.131 133.867 277.038L135.561 276.786C135.906 276.739 136.079 276.576 136.079 276.296C136.079 276.035 135.976 275.82 135.771 275.652C135.575 275.484 135.29 275.4 134.917 275.4C134.525 275.4 134.212 275.507 133.979 275.722C133.755 275.937 133.629 276.203 133.601 276.52L131.949 276.17C132.014 275.573 132.308 275.045 132.831 274.588C133.354 274.131 134.044 273.902 134.903 273.902C135.93 273.902 136.686 274.149 137.171 274.644C137.656 275.129 137.899 275.755 137.899 276.52V279.908C137.899 280.319 137.927 280.683 137.983 281H136.275C136.228 280.795 136.205 280.519 136.205 280.174C135.766 280.855 135.09 281.196 134.175 281.196C133.466 281.196 132.892 280.991 132.453 280.58C132.024 280.169 131.809 279.684 131.809 279.124ZM134.567 279.81C135.006 279.81 135.365 279.689 135.645 279.446C135.934 279.194 136.079 278.783 136.079 278.214V277.906L134.525 278.144C133.956 278.228 133.671 278.517 133.671 279.012C133.671 279.236 133.75 279.427 133.909 279.586C134.068 279.735 134.287 279.81 134.567 279.81ZM141.978 283.716H140.004L141.628 280.132L138.702 274.112H140.788L142.622 278.144L144.316 274.112H146.304L141.978 283.716ZM149.294 281H147.432V270.864H149.294V281ZM153.149 281H151.287V274.112H153.149V281ZM151.063 271.858C151.063 271.541 151.175 271.27 151.399 271.046C151.623 270.813 151.894 270.696 152.211 270.696C152.529 270.696 152.799 270.808 153.023 271.032C153.247 271.256 153.359 271.531 153.359 271.858C153.359 272.166 153.247 272.432 153.023 272.656C152.799 272.88 152.529 272.992 152.211 272.992C151.894 272.992 151.623 272.88 151.399 272.656C151.175 272.432 151.063 272.166 151.063 271.858ZM154.555 279.082L156.151 278.732C156.17 279.031 156.286 279.283 156.501 279.488C156.725 279.684 157.028 279.782 157.411 279.782C157.7 279.782 157.924 279.717 158.083 279.586C158.242 279.455 158.321 279.292 158.321 279.096C158.321 278.751 158.074 278.527 157.579 278.424L156.669 278.214C156.025 278.074 155.54 277.822 155.213 277.458C154.896 277.094 154.737 276.66 154.737 276.156C154.737 275.531 154.98 274.999 155.465 274.56C155.96 274.121 156.576 273.902 157.313 273.902C157.78 273.902 158.19 273.972 158.545 274.112C158.9 274.243 159.175 274.415 159.371 274.63C159.567 274.835 159.716 275.045 159.819 275.26C159.922 275.475 159.987 275.685 160.015 275.89L158.461 276.24C158.424 275.997 158.312 275.783 158.125 275.596C157.948 275.409 157.682 275.316 157.327 275.316C157.084 275.316 156.874 275.381 156.697 275.512C156.529 275.643 156.445 275.806 156.445 276.002C156.445 276.338 156.655 276.543 157.075 276.618L158.055 276.828C158.718 276.968 159.222 277.225 159.567 277.598C159.922 277.971 160.099 278.419 160.099 278.942C160.099 279.558 159.866 280.09 159.399 280.538C158.932 280.986 158.274 281.21 157.425 281.21C156.94 281.21 156.506 281.14 156.123 281C155.74 280.851 155.442 280.664 155.227 280.44C155.022 280.207 154.863 279.978 154.751 279.754C154.648 279.521 154.583 279.297 154.555 279.082ZM163.892 272.054V274.112H165.278V275.764H163.892V278.648C163.892 278.937 163.957 279.143 164.088 279.264C164.219 279.385 164.424 279.446 164.704 279.446C164.956 279.446 165.147 279.427 165.278 279.39V280.93C165.007 281.042 164.657 281.098 164.228 281.098C163.556 281.098 163.024 280.911 162.632 280.538C162.24 280.155 162.044 279.633 162.044 278.97V275.764H160.798V274.112H161.148C161.493 274.112 161.755 274.014 161.932 273.818C162.119 273.613 162.212 273.347 162.212 273.02V272.054H163.892Z" fill="white"/>
<path d="M8 88C8 85.7909 9.79086 84 12 84H220C222.209 84 224 85.7909 224 88V120C224 122.209 222.209 124 220 124H12C9.79086 124 8 122.209 8 120V88Z" fill="#282828"/>
<path d="M45 113.738H38V106.738H34V113.738H27V98.9524L36 93.7144L45 98.9167V113.738Z" fill="white"/>
<path d="M73.338 108H71.392V103.884H67.066V108H65.134V98.074H67.066V102.064H71.392V98.074H73.338V108ZM77.2736 105.998C77.619 106.343 78.0343 106.516 78.5196 106.516C79.005 106.516 79.4156 106.343 79.7516 105.998C80.097 105.653 80.2696 105.172 80.2696 104.556C80.2696 103.94 80.097 103.459 79.7516 103.114C79.4156 102.769 79.005 102.596 78.5196 102.596C78.0343 102.596 77.619 102.769 77.2736 103.114C76.9376 103.459 76.7696 103.94 76.7696 104.556C76.7696 105.172 76.9376 105.653 77.2736 105.998ZM75.9296 101.938C76.6203 101.247 77.4836 100.902 78.5196 100.902C79.5556 100.902 80.4143 101.247 81.0956 101.938C81.7863 102.629 82.1316 103.501 82.1316 104.556C82.1316 105.611 81.7863 106.483 81.0956 107.174C80.4143 107.865 79.5556 108.21 78.5196 108.21C77.4836 108.21 76.6203 107.865 75.9296 107.174C75.2483 106.483 74.9076 105.611 74.9076 104.556C74.9076 103.501 75.2483 102.629 75.9296 101.938ZM85.4634 108H83.6014V101.112H85.3794V101.952C85.5568 101.635 85.8368 101.383 86.2194 101.196C86.6021 101.009 86.9941 100.916 87.3954 100.916C88.3941 100.916 89.0754 101.299 89.4394 102.064C89.9341 101.299 90.6621 100.916 91.6234 100.916C92.3234 100.916 92.9114 101.135 93.3874 101.574C93.8728 102.013 94.1154 102.666 94.1154 103.534V108H92.3094V103.912C92.3094 103.52 92.2068 103.207 92.0014 102.974C91.8054 102.731 91.5021 102.61 91.0914 102.61C90.7088 102.61 90.4008 102.741 90.1674 103.002C89.9341 103.263 89.8174 103.585 89.8174 103.968V108H87.9694V103.912C87.9694 103.52 87.8668 103.207 87.6614 102.974C87.4561 102.731 87.1528 102.61 86.7514 102.61C86.3594 102.61 86.0468 102.741 85.8134 103.002C85.5801 103.254 85.4634 103.576 85.4634 103.968V108ZM97.3598 103.772H100.44C100.421 103.389 100.281 103.067 100.02 102.806C99.7678 102.545 99.3945 102.414 98.8998 102.414C98.4518 102.414 98.0878 102.554 97.8078 102.834C97.5278 103.114 97.3785 103.427 97.3598 103.772ZM100.622 105.564L102.176 106.026C101.989 106.661 101.62 107.183 101.07 107.594C100.528 108.005 99.8518 108.21 99.0398 108.21C98.0505 108.21 97.2105 107.879 96.5198 107.216C95.8291 106.544 95.4838 105.648 95.4838 104.528C95.4838 103.464 95.8198 102.596 96.4918 101.924C97.1638 101.243 97.9571 100.902 98.8718 100.902C99.9358 100.902 100.766 101.219 101.364 101.854C101.97 102.489 102.274 103.361 102.274 104.472C102.274 104.547 102.269 104.631 102.26 104.724C102.26 104.817 102.26 104.892 102.26 104.948L102.246 105.046H97.3178C97.3365 105.494 97.5138 105.867 97.8498 106.166C98.1858 106.465 98.5871 106.614 99.0538 106.614C99.8471 106.614 100.37 106.264 100.622 105.564Z" fill="white"/>
<path d="M37.6547 175.833L45.4523 193.345L44.5476 193.75L36.75 176.238L37.6547 175.833ZM27 193.738V175.738H28V193.738H27ZM33 193.738V175.738H34V193.738H33Z" fill="#B3B3B3"/>
<path opacity="0.7" d="M67.598 183.828L64.14 178.074H66.408L68.634 182.008L70.86 178.074H73.03L69.53 183.828V188H67.598V183.828ZM74.635 185.998C74.9803 186.343 75.3956 186.516 75.881 186.516C76.3663 186.516 76.777 186.343 77.113 185.998C77.4583 185.653 77.631 185.172 77.631 184.556C77.631 183.94 77.4583 183.459 77.113 183.114C76.777 182.769 76.3663 182.596 75.881 182.596C75.3956 182.596 74.9803 182.769 74.635 183.114C74.299 183.459 74.131 183.94 74.131 184.556C74.131 185.172 74.299 185.653 74.635 185.998ZM73.291 181.938C73.9816 181.247 74.845 180.902 75.881 180.902C76.917 180.902 77.7756 181.247 78.457 181.938C79.1476 182.629 79.493 183.501 79.493 184.556C79.493 185.611 79.1476 186.483 78.457 187.174C77.7756 187.865 76.917 188.21 75.881 188.21C74.845 188.21 73.9816 187.865 73.291 187.174C72.6096 186.483 72.269 185.611 72.269 184.556C72.269 183.501 72.6096 182.629 73.291 181.938ZM85.4434 188C85.4061 187.813 85.3874 187.566 85.3874 187.258C85.2101 187.566 84.9441 187.799 84.5894 187.958C84.2441 188.107 83.8754 188.182 83.4834 188.182C82.6714 188.182 82.0321 187.925 81.5654 187.412C81.0987 186.889 80.8654 186.241 80.8654 185.466V181.112H82.7274V185.088C82.7274 185.499 82.8347 185.835 83.0494 186.096C83.2641 186.348 83.5767 186.474 83.9874 186.474C84.3887 186.474 84.7061 186.353 84.9394 186.11C85.1727 185.858 85.2894 185.527 85.2894 185.116V181.112H87.1514V186.754C87.1514 187.193 87.1747 187.608 87.2214 188H85.4434ZM93.3385 181.084V182.96C93.1519 182.923 92.9652 182.904 92.7785 182.904C92.2465 182.904 91.8172 183.058 91.4905 183.366C91.1639 183.665 91.0005 184.159 91.0005 184.85V188H89.1385V181.112H90.9445V182.134C91.2805 181.415 91.9339 181.056 92.9045 181.056C93.0072 181.056 93.1519 181.065 93.3385 181.084ZM104.562 188H98.2063V178.074H100.138V186.152H104.562V188ZM107.762 188H105.9V181.112H107.762V188ZM105.676 178.858C105.676 178.541 105.788 178.27 106.012 178.046C106.236 177.813 106.507 177.696 106.824 177.696C107.142 177.696 107.412 177.808 107.636 178.032C107.86 178.256 107.972 178.531 107.972 178.858C107.972 179.166 107.86 179.432 107.636 179.656C107.412 179.88 107.142 179.992 106.824 179.992C106.507 179.992 106.236 179.88 106.012 179.656C105.788 179.432 105.676 179.166 105.676 178.858ZM111.562 188H109.756V177.864H111.59V181.868C111.758 181.607 112.024 181.387 112.388 181.21C112.761 181.023 113.19 180.93 113.676 180.93C114.656 180.93 115.43 181.266 116 181.938C116.569 182.61 116.854 183.473 116.854 184.528C116.854 185.583 116.555 186.455 115.958 187.146C115.36 187.827 114.576 188.168 113.606 188.168C112.663 188.168 111.982 187.832 111.562 187.16V188ZM114.502 185.984C114.828 185.629 114.992 185.149 114.992 184.542C114.992 183.935 114.828 183.459 114.502 183.114C114.184 182.769 113.778 182.596 113.284 182.596C112.789 182.596 112.378 182.769 112.052 183.114C111.725 183.459 111.562 183.935 111.562 184.542C111.562 185.149 111.725 185.629 112.052 185.984C112.388 186.329 112.798 186.502 113.284 186.502C113.778 186.502 114.184 186.329 114.502 185.984ZM122.528 181.084V182.96C122.341 182.923 122.155 182.904 121.968 182.904C121.436 182.904 121.007 183.058 120.68 183.366C120.353 183.665 120.19 184.159 120.19 184.85V188H118.328V181.112H120.134V182.134C120.47 181.415 121.123 181.056 122.094 181.056C122.197 181.056 122.341 181.065 122.528 181.084ZM123.459 186.124C123.459 185.536 123.65 185.065 124.033 184.71C124.415 184.355 124.91 184.131 125.517 184.038L127.211 183.786C127.556 183.739 127.729 183.576 127.729 183.296C127.729 183.035 127.626 182.82 127.421 182.652C127.225 182.484 126.94 182.4 126.567 182.4C126.175 182.4 125.862 182.507 125.629 182.722C125.405 182.937 125.279 183.203 125.251 183.52L123.599 183.17C123.664 182.573 123.958 182.045 124.481 181.588C125.003 181.131 125.694 180.902 126.553 180.902C127.579 180.902 128.335 181.149 128.821 181.644C129.306 182.129 129.549 182.755 129.549 183.52V186.908C129.549 187.319 129.577 187.683 129.633 188H127.925C127.878 187.795 127.855 187.519 127.855 187.174C127.416 187.855 126.739 188.196 125.825 188.196C125.115 188.196 124.541 187.991 124.103 187.58C123.673 187.169 123.459 186.684 123.459 186.124ZM126.217 186.81C126.655 186.81 127.015 186.689 127.295 186.446C127.584 186.194 127.729 185.783 127.729 185.214V184.906L126.175 185.144C125.605 185.228 125.321 185.517 125.321 186.012C125.321 186.236 125.4 186.427 125.559 186.586C125.717 186.735 125.937 186.81 126.217 186.81ZM135.626 181.084V182.96C135.439 182.923 135.252 182.904 135.066 182.904C134.534 182.904 134.104 183.058 133.778 183.366C133.451 183.665 133.288 184.159 133.288 184.85V188H131.426V181.112H133.232V182.134C133.568 181.415 134.221 181.056 135.192 181.056C135.294 181.056 135.439 181.065 135.626 181.084ZM139.616 190.716H137.642L139.266 187.132L136.34 181.112H138.426L140.26 185.144L141.954 181.112H143.942L139.616 190.716Z" fill="white"/>
<path fill-rule="evenodd" clip-rule="evenodd" d="M40.3929 148.31L44.7858 153.464L44.0239 154.119L39.6191 148.964C38.1032 150.115 36.3968 150.691 34.5 150.691C33.3492 150.691 32.248 150.466 31.1964 150.018C30.1449 149.57 29.2401 148.966 28.4821 148.208C27.7242 147.45 27.121 146.546 26.6726 145.494C26.2242 144.443 26 143.341 26 142.191C26 141.04 26.2242 139.939 26.6726 138.887C27.121 137.835 27.7242 136.931 28.4821 136.173C29.24 135.415 30.1448 134.812 31.1964 134.363C32.248 133.915 33.3492 133.691 34.5 133.691C35.6507 133.691 36.7519 133.915 37.8035 134.363C38.8552 134.812 39.7599 135.415 40.5178 136.173C41.2758 136.931 41.8789 137.835 42.3274 138.887C42.7758 139.939 43 141.04 43 142.191C43 143.373 42.7698 144.492 42.3095 145.548C41.8492 146.603 41.2103 147.524 40.3928 148.31L40.3929 148.31ZM34.5001 149.69C35.8572 149.69 37.1112 149.355 38.262 148.685C39.4128 148.014 40.3235 147.103 40.9941 145.952C41.6648 144.802 42.0001 143.548 42.0001 142.19C42.0002 140.833 41.6648 139.579 40.9941 138.429C40.3235 137.278 39.4127 136.367 38.262 135.696C37.1112 135.026 35.8573 134.69 34.5001 134.69C33.1429 134.69 31.8889 135.026 30.7382 135.696C29.5874 136.367 28.6767 137.278 28.0061 138.429C27.3354 139.579 27.0001 140.833 27.0001 142.19C27.0002 143.548 27.3355 144.802 28.0061 145.952C28.6767 147.103 29.5874 148.014 30.7382 148.685C31.889 149.355 33.143 149.69 34.5001 149.69Z" fill="#B3B3B3"/>
<path opacity="0.7" d="M71.812 140.44L70.076 140.972C70.0107 140.617 69.8333 140.295 69.544 140.006C69.2547 139.717 68.83 139.572 68.27 139.572C67.8127 139.572 67.4393 139.698 67.15 139.95C66.8607 140.193 66.716 140.487 66.716 140.832C66.716 141.439 67.0753 141.812 67.794 141.952L69.18 142.218C70.0573 142.386 70.7387 142.736 71.224 143.268C71.7093 143.8 71.952 144.425 71.952 145.144C71.952 145.965 71.6253 146.684 70.972 147.3C70.328 147.907 69.46 148.21 68.368 148.21C67.7427 148.21 67.178 148.117 66.674 147.93C66.17 147.743 65.764 147.496 65.456 147.188C65.148 146.871 64.9053 146.539 64.728 146.194C64.56 145.839 64.4573 145.475 64.42 145.102L66.212 144.626C66.2587 145.158 66.464 145.601 66.828 145.956C67.2013 146.311 67.7193 146.488 68.382 146.488C68.886 146.488 69.278 146.376 69.558 146.152C69.8473 145.928 69.992 145.634 69.992 145.27C69.992 144.981 69.8847 144.733 69.67 144.528C69.4647 144.313 69.1707 144.169 68.788 144.094L67.402 143.814C66.5993 143.646 65.9647 143.315 65.498 142.82C65.0313 142.325 64.798 141.709 64.798 140.972C64.798 140.095 65.134 139.357 65.806 138.76C66.4873 138.163 67.304 137.864 68.256 137.864C68.8253 137.864 69.334 137.943 69.782 138.102C70.23 138.261 70.5893 138.475 70.86 138.746C71.1307 139.007 71.3407 139.278 71.49 139.558C71.6393 139.838 71.7467 140.132 71.812 140.44ZM74.7465 143.772H77.8265C77.8079 143.389 77.6679 143.067 77.4065 142.806C77.1545 142.545 76.7812 142.414 76.2865 142.414C75.8385 142.414 75.4745 142.554 75.1945 142.834C74.9145 143.114 74.7652 143.427 74.7465 143.772ZM78.0085 145.564L79.5625 146.026C79.3759 146.661 79.0072 147.183 78.4565 147.594C77.9152 148.005 77.2385 148.21 76.4265 148.21C75.4372 148.21 74.5972 147.879 73.9065 147.216C73.2159 146.544 72.8705 145.648 72.8705 144.528C72.8705 143.464 73.2065 142.596 73.8785 141.924C74.5505 141.243 75.3439 140.902 76.2585 140.902C77.3225 140.902 78.1532 141.219 78.7505 141.854C79.3572 142.489 79.6605 143.361 79.6605 144.472C79.6605 144.547 79.6559 144.631 79.6465 144.724C79.6465 144.817 79.6465 144.892 79.6465 144.948L79.6325 145.046H74.7045C74.7232 145.494 74.9005 145.867 75.2365 146.166C75.5725 146.465 75.9739 146.614 76.4405 146.614C77.2339 146.614 77.7565 146.264 78.0085 145.564ZM80.7068 146.124C80.7068 145.536 80.8981 145.065 81.2808 144.71C81.6635 144.355 82.1581 144.131 82.7648 144.038L84.4588 143.786C84.8041 143.739 84.9768 143.576 84.9768 143.296C84.9768 143.035 84.8741 142.82 84.6688 142.652C84.4728 142.484 84.1881 142.4 83.8148 142.4C83.4228 142.4 83.1101 142.507 82.8768 142.722C82.6528 142.937 82.5268 143.203 82.4988 143.52L80.8468 143.17C80.9121 142.573 81.2061 142.045 81.7288 141.588C82.2515 141.131 82.9421 140.902 83.8008 140.902C84.8275 140.902 85.5835 141.149 86.0688 141.644C86.5541 142.129 86.7968 142.755 86.7968 143.52V146.908C86.7968 147.319 86.8248 147.683 86.8808 148H85.1728C85.1261 147.795 85.1028 147.519 85.1028 147.174C84.6641 147.855 83.9875 148.196 83.0728 148.196C82.3635 148.196 81.7895 147.991 81.3508 147.58C80.9215 147.169 80.7068 146.684 80.7068 146.124ZM83.4648 146.81C83.9035 146.81 84.2628 146.689 84.5428 146.446C84.8321 146.194 84.9768 145.783 84.9768 145.214V144.906L83.4228 145.144C82.8535 145.228 82.5688 145.517 82.5688 146.012C82.5688 146.236 82.6481 146.427 82.8068 146.586C82.9655 146.735 83.1848 146.81 83.4648 146.81ZM92.8737 141.084V142.96C92.687 142.923 92.5004 142.904 92.3137 142.904C91.7817 142.904 91.3524 143.058 91.0257 143.366C90.699 143.665 90.5357 144.159 90.5357 144.85V148H88.6737V141.112H90.4797V142.134C90.8157 141.415 91.469 141.056 92.4397 141.056C92.5424 141.056 92.687 141.065 92.8737 141.084ZM97.2091 142.624C96.7144 142.624 96.2991 142.797 95.9631 143.142C95.6271 143.487 95.4591 143.959 95.4591 144.556C95.4591 145.153 95.6271 145.629 95.9631 145.984C96.3084 146.329 96.7284 146.502 97.2231 146.502C97.6618 146.502 98.0118 146.39 98.2731 146.166C98.5344 145.933 98.7118 145.657 98.8051 145.34L100.443 145.886C100.275 146.521 99.9111 147.067 99.3511 147.524C98.7911 147.981 98.0818 148.21 97.2231 148.21C96.1964 148.21 95.3331 147.865 94.6331 147.174C93.9424 146.474 93.5971 145.601 93.5971 144.556C93.5971 143.501 93.9378 142.629 94.6191 141.938C95.3098 141.247 96.1591 140.902 97.1671 140.902C98.0444 140.902 98.7631 141.131 99.3231 141.588C99.8831 142.036 100.242 142.582 100.401 143.226L98.7351 143.786C98.5111 143.011 98.0024 142.624 97.2091 142.624ZM103.674 143.954V148H101.812V137.864H103.674V141.686C104.094 141.182 104.715 140.93 105.536 140.93C106.376 140.93 107.011 141.187 107.44 141.7C107.879 142.204 108.098 142.857 108.098 143.66V148H106.236V143.982C106.236 143.571 106.129 143.24 105.914 142.988C105.709 142.736 105.392 142.61 104.962 142.61C104.58 142.61 104.272 142.736 104.038 142.988C103.814 143.24 103.693 143.562 103.674 143.954Z" fill="white"/>
<g clip-path="url(#clip2_8_296)">
<path d="M24.9241 39.1176C24.9241 49.9412 33.7036 58.8823 44.3315 58.8823C54.9593 58.8823 63.7389 49.9412 63.7389 39.1176C63.7389 28.2941 54.9593 19.4706 44.3315 19.4706C33.7036 19.4706 24.9241 28.2941 24.9241 39.1176ZM51.4937 48.2941C46.9884 45.4706 41.2124 44.7647 34.5123 46.2941C32.895 46.5294 32.6639 44.1765 34.0502 43.9412C41.4435 42.1765 47.6816 43 52.7645 46.1765C54.0352 47 52.7645 49 51.4937 48.2941ZM53.4576 43C48.2592 39.7059 40.2883 38.7647 34.1657 40.6471C32.2018 41.2353 31.5087 38.1765 33.3571 37.7059C40.4038 35.5882 49.0678 36.6471 55.0749 40.4118C56.6921 41.4706 55.0749 44.0588 53.4576 43ZM33.2415 34.6471C31.2777 35.3529 30.007 31.9412 32.2018 31.1176C39.0175 29 50.5696 29.3529 57.7318 33.7059C59.6957 34.7647 57.8474 38.0588 55.768 36.8823C49.5299 33.1176 39.1331 32.7647 33.2415 34.6471ZM77.0237 45.3529C75.0599 45.3529 73.2115 44.6471 71.5943 43C71.4787 43 71.4787 43.1176 71.4787 43.1176L69.6304 45.3529C69.5149 45.4706 69.5149 45.5882 69.6304 45.7059C71.7098 47.5882 74.2512 48.5294 77.0237 48.5294C80.9514 48.5294 83.3773 46.2941 83.3773 43C83.3773 40.1765 81.6445 38.6471 77.6013 37.5882C74.2512 36.7647 73.6736 36.1765 73.6736 35C73.6736 33.8235 74.8288 33.1176 76.3306 33.1176C77.8324 33.1176 79.2186 33.7059 80.8359 34.8823C80.8359 34.8823 80.9514 35 81.0669 35C81.1824 35 81.1824 34.8823 81.1824 34.8823L82.7997 32.5294C82.9153 32.4118 82.9153 32.4118 82.7997 32.2941C80.9514 30.7647 78.7565 29.9412 76.3306 29.9412C72.7495 29.9412 70.208 32.1765 70.208 35.3529C70.208 38.7647 72.5184 39.8235 76.2151 40.7647C79.4496 41.4706 79.9117 42.1765 79.9117 43.3529C79.9117 44.6471 78.7565 45.3529 77.0237 45.3529ZM87.9981 36.2941V34.7647C87.9981 34.6471 87.8826 34.5294 87.7671 34.5294H84.7636C84.6481 34.5294 84.5325 34.6471 84.5325 34.7647V52.0588C84.5325 52.1765 84.6481 52.2941 84.7636 52.2941H87.7671C87.8826 52.2941 87.9981 52.1765 87.9981 52.0588V46.6471C89.1533 47.9412 90.4241 48.5294 92.1569 48.5294C95.2759 48.5294 98.395 46.0588 98.395 41.3529C98.395 36.6471 95.2759 34.2941 92.1569 34.2941C90.4241 34.2941 89.1533 34.8823 87.9981 36.2941ZM91.4638 45.4706C89.3844 45.4706 87.8826 43.7059 87.8826 41.3529C87.8826 39 89.3844 37.3529 91.4638 37.3529C93.5431 37.3529 94.9294 39 94.9294 41.3529C94.9294 43.7059 93.5431 45.4706 91.4638 45.4706ZM99.3191 41.4706C99.3191 45.4706 102.438 48.5294 106.481 48.5294C110.525 48.5294 113.644 45.3529 113.644 41.3529C113.644 37.3529 110.64 34.2941 106.597 34.2941C102.554 34.2941 99.3191 37.4706 99.3191 41.4706ZM102.785 41.3529C102.785 39 104.286 37.3529 106.481 37.3529C108.676 37.3529 110.294 39.1176 110.294 41.4706C110.294 43.8235 108.792 45.4706 106.597 45.4706C104.402 45.4706 102.785 43.7059 102.785 41.3529ZM118.958 34.5294V31.1176C118.958 31 118.958 30.8823 118.842 30.8823H115.839C115.723 30.8823 115.607 31 115.607 31.1176V34.5294H114.106C113.99 34.5294 113.875 34.6471 113.875 34.7647V37.3529C113.875 37.4706 113.99 37.5882 114.106 37.5882H115.607V44.4118C115.607 47.1176 116.878 48.5294 119.535 48.5294C120.575 48.5294 121.615 48.2941 122.423 47.8235C122.539 47.8235 122.539 47.7059 122.539 47.5882V45.1176C122.539 45 122.539 44.8823 122.423 44.8823H122.192C121.615 45.2353 120.921 45.3529 120.344 45.3529C119.42 45.3529 118.958 44.8823 118.958 43.9412V37.5882H122.423C122.539 37.5882 122.654 37.4706 122.654 37.3529V34.7647C122.654 34.6471 122.539 34.5294 122.423 34.5294H118.958ZM133.86 34.1765C133.86 32.8823 134.322 32.4118 135.361 32.4118C135.939 32.4118 136.517 32.4118 137.094 32.6471H137.21C137.21 32.6471 137.325 32.5294 137.325 32.4118V29.9412C137.325 29.8235 137.325 29.7059 137.21 29.7059C136.632 29.4706 135.824 29.3529 134.668 29.3529C131.896 29.3529 130.51 31 130.51 33.9412V34.5294H129.008C128.892 34.5294 128.777 34.6471 128.777 34.7647V37.3529C128.777 37.4706 128.892 37.5882 129.008 37.5882H130.51V48.0588C130.51 48.1765 130.625 48.2941 130.741 48.2941H133.744C133.86 48.2941 133.86 48.1765 133.86 48.0588V37.5882H136.748L141.022 48.0588C140.56 49.1176 140.098 49.3529 139.405 49.3529C138.827 49.3529 138.249 49.2353 137.672 48.8823H137.556L137.441 49L136.401 51.2353C136.401 51.3529 136.401 51.5882 136.517 51.5882C137.556 52.1765 138.481 52.4118 139.636 52.4118C141.831 52.4118 143.101 51.3529 144.141 48.5294L149.339 34.8823V34.6471C149.339 34.5294 149.224 34.5294 149.108 34.5294H145.989C145.874 34.5294 145.874 34.6471 145.874 34.7647L142.639 43.9412L139.174 34.7647C139.174 34.6471 139.058 34.5294 138.943 34.5294H133.86V34.1765ZM124.272 34.5294C124.156 34.5294 124.04 34.6471 124.04 34.7647V48.0588C124.04 48.1765 124.156 48.2941 124.272 48.2941H127.275C127.391 48.2941 127.391 48.1765 127.391 48.0588V34.7647C127.391 34.6471 127.391 34.5294 127.275 34.5294H124.272ZM123.578 30.6471C123.578 31.8235 124.618 32.8823 125.773 32.8823C126.928 32.8823 127.853 31.8235 127.853 30.6471C127.853 29.4706 126.928 28.5294 125.773 28.5294C124.618 28.5294 123.578 29.4706 123.578 30.6471ZM151.881 38.7647C153.036 38.7647 154.076 37.8235 154.076 36.6471C154.076 35.4706 153.036 34.5294 151.881 34.5294C150.726 34.5294 149.801 35.4706 149.801 36.6471C149.801 37.8235 150.726 38.7647 151.881 38.7647ZM151.881 34.7647C152.921 34.7647 153.845 35.5882 153.845 36.6471C153.845 37.7059 152.921 38.5294 151.881 38.5294C150.841 38.5294 150.033 37.7059 150.033 36.6471C150.033 35.5882 150.841 34.7647 151.881 34.7647ZM152.343 36.8823C152.689 36.7647 152.921 36.5294 152.921 36.1765C152.921 35.7059 152.458 35.4706 151.996 35.4706H151.072V37.7059H151.534V37H151.996L152.458 37.7059H153.036L152.343 36.8823ZM151.996 35.8235C152.227 35.8235 152.458 35.9412 152.458 36.1765C152.458 36.4118 152.227 36.5294 151.996 36.5294H151.534V35.8235H151.996Z" fill="white"/>
</g>
<defs>
<linearGradient id="paint0_linear_8_296" x1="23" y1="303" x2="50.5" y2="335" gradientUnits="userSpaceOnUse">
<stop stop-color="#27148F"/>
<stop offset="0.65219" stop-color="#605F9E"/>
<stop offset="1" stop-color="#86979A"/>
</linearGradient>
<clipPath id="clip0_8_296">
<rect width="134.828" height="16" fill="white" transform="translate(71.3794 311)"/>
</clipPath>
<clipPath id="clip1_8_296">
<rect width="32" height="32" fill="white" transform="translate(23 261)"/>
</clipPath>
<clipPath id="clip2_8_296">
<rect width="131" height="40" fill="white" transform="translate(24 19)"/>
</clipPath>
</defs>
</svg>
