<svg width="362" height="100" viewBox="0 0 362 100" fill="none" xmlns="http://www.w3.org/2000/svg">
<rect width="362" height="100" rx="4" fill="#303030"/>
<rect width="362" height="100" rx="4" fill="#303030"/>
<path d="M0 4C0 1.79086 1.79086 0 4 0H100V100H4C1.79086 100 0 98.2091 0 96V4Z" fill="url(#paint0_linear_306_563)"/>
<g clip-path="url(#clip0_306_563)">
<path d="M57.1461 37.1083C55.7854 37.1294 54.4545 37.5093 53.2876 38.2094C52.1207 38.9095 51.1592 39.9052 50.5002 41.0958C49.8413 39.9052 48.8798 38.9095 47.7129 38.2094C46.546 37.5093 45.215 37.1294 43.8544 37.1083C41.6854 37.2025 39.6418 38.1514 38.1701 39.7476C36.6985 41.3437 35.9184 43.4575 36.0002 45.627C36.0002 53.8135 49.2387 63.2687 49.8018 63.6699L50.5002 64.1641L51.1987 63.6699C51.7617 63.2711 65.0002 53.8135 65.0002 45.627C65.0821 43.4575 64.302 41.3437 62.8303 39.7476C61.3587 38.1514 59.3151 37.2025 57.1461 37.1083Z" fill="white"/>
</g>
<path d="M122.36 57V43H124.92V55H131.12V57H122.36ZM134.296 45.54C133.829 45.54 133.442 45.4 133.136 45.12C132.842 44.84 132.696 44.4867 132.696 44.06C132.696 43.6333 132.842 43.2867 133.136 43.02C133.442 42.74 133.829 42.6 134.296 42.6C134.762 42.6 135.142 42.74 135.436 43.02C135.742 43.2867 135.896 43.6333 135.896 44.06C135.896 44.4867 135.742 44.84 135.436 45.12C135.142 45.4 134.762 45.54 134.296 45.54ZM133.016 57V47.08H135.576V57H133.016ZM137.848 57V42.6H140.408V51.1L143.928 47.08H146.968L142.908 51.6L147.628 57H144.428L140.408 52.02V57H137.848ZM152.815 57.24C151.815 57.24 150.928 57.0267 150.155 56.6C149.381 56.1733 148.775 55.5733 148.335 54.8C147.895 54.0267 147.675 53.1333 147.675 52.12C147.675 51.0933 147.888 50.18 148.315 49.38C148.755 48.58 149.355 47.96 150.115 47.52C150.888 47.0667 151.795 46.84 152.835 46.84C153.808 46.84 154.668 47.0533 155.415 47.48C156.161 47.9067 156.741 48.4933 157.155 49.24C157.581 49.9733 157.795 50.7933 157.795 51.7C157.795 51.8467 157.788 52 157.775 52.16C157.775 52.32 157.768 52.4867 157.755 52.66H150.215C150.268 53.4333 150.535 54.04 151.015 54.48C151.508 54.92 152.101 55.14 152.795 55.14C153.315 55.14 153.748 55.0267 154.095 54.8C154.455 54.56 154.721 54.2533 154.895 53.88H157.495C157.308 54.5067 156.995 55.08 156.555 55.6C156.128 56.1067 155.595 56.5067 154.955 56.8C154.328 57.0933 153.615 57.24 152.815 57.24ZM152.835 48.92C152.208 48.92 151.655 49.1 151.175 49.46C150.695 49.8067 150.388 50.34 150.255 51.06H155.195C155.155 50.4067 154.915 49.8867 154.475 49.5C154.035 49.1133 153.488 48.92 152.835 48.92ZM164.108 57.24C163.174 57.24 162.341 57.0133 161.608 56.56C160.874 56.1067 160.294 55.4867 159.868 54.7C159.441 53.9133 159.228 53.02 159.228 52.02C159.228 51.02 159.441 50.1333 159.868 49.36C160.294 48.5733 160.874 47.96 161.608 47.52C162.341 47.0667 163.174 46.84 164.108 46.84C164.854 46.84 165.508 46.98 166.068 47.26C166.628 47.54 167.081 47.9333 167.428 48.44V42.6H169.988V57H167.708L167.428 55.58C167.108 56.02 166.681 56.4067 166.148 56.74C165.628 57.0733 164.948 57.24 164.108 57.24ZM164.648 55C165.474 55 166.148 54.7267 166.668 54.18C167.201 53.62 167.468 52.9067 167.468 52.04C167.468 51.1733 167.201 50.4667 166.668 49.92C166.148 49.36 165.474 49.08 164.648 49.08C163.834 49.08 163.161 49.3533 162.628 49.9C162.094 50.4467 161.828 51.1533 161.828 52.02C161.828 52.8867 162.094 53.6 162.628 54.16C163.161 54.72 163.834 55 164.648 55ZM181.4 57.24C180.373 57.24 179.467 57.0667 178.68 56.72C177.893 56.36 177.273 55.8533 176.82 55.2C176.367 54.5333 176.133 53.7267 176.12 52.78H178.82C178.847 53.4333 179.08 53.9867 179.52 54.44C179.973 54.88 180.593 55.1 181.38 55.1C182.06 55.1 182.6 54.94 183 54.62C183.4 54.2867 183.6 53.8467 183.6 53.3C183.6 52.7267 183.42 52.28 183.06 51.96C182.713 51.64 182.247 51.38 181.66 51.18C181.073 50.98 180.447 50.7667 179.78 50.54C178.7 50.1667 177.873 49.6867 177.3 49.1C176.74 48.5133 176.46 47.7333 176.46 46.76C176.447 45.9333 176.64 45.2267 177.04 44.64C177.453 44.04 178.013 43.58 178.72 43.26C179.427 42.9267 180.24 42.76 181.16 42.76C182.093 42.76 182.913 42.9267 183.62 43.26C184.34 43.5933 184.9 44.06 185.3 44.66C185.713 45.26 185.933 45.9733 185.96 46.8H183.22C183.207 46.3067 183.013 45.8733 182.64 45.5C182.28 45.1133 181.773 44.92 181.12 44.92C180.56 44.9067 180.087 45.0467 179.7 45.34C179.327 45.62 179.14 46.0333 179.14 46.58C179.14 47.0467 179.287 47.42 179.58 47.7C179.873 47.9667 180.273 48.1933 180.78 48.38C181.287 48.5667 181.867 48.7667 182.52 48.98C183.213 49.22 183.847 49.5 184.42 49.82C184.993 50.14 185.453 50.5667 185.8 51.1C186.147 51.62 186.32 52.2933 186.32 53.12C186.32 53.8533 186.133 54.5333 185.76 55.16C185.387 55.7867 184.833 56.2933 184.1 56.68C183.367 57.0533 182.467 57.24 181.4 57.24ZM192.854 57.24C191.894 57.24 191.027 57.02 190.254 56.58C189.494 56.14 188.887 55.5333 188.434 54.76C187.994 53.9733 187.774 53.0667 187.774 52.04C187.774 51.0133 188 50.1133 188.454 49.34C188.907 48.5533 189.514 47.94 190.274 47.5C191.047 47.06 191.914 46.84 192.874 46.84C193.82 46.84 194.674 47.06 195.434 47.5C196.207 47.94 196.814 48.5533 197.254 49.34C197.707 50.1133 197.934 51.0133 197.934 52.04C197.934 53.0667 197.707 53.9733 197.254 54.76C196.814 55.5333 196.207 56.14 195.434 56.58C194.66 57.02 193.8 57.24 192.854 57.24ZM192.854 55.02C193.52 55.02 194.1 54.7733 194.594 54.28C195.087 53.7733 195.334 53.0267 195.334 52.04C195.334 51.0533 195.087 50.3133 194.594 49.82C194.1 49.3133 193.527 49.06 192.874 49.06C192.194 49.06 191.607 49.3133 191.114 49.82C190.634 50.3133 190.394 51.0533 190.394 52.04C190.394 53.0267 190.634 53.7733 191.114 54.28C191.607 54.7733 192.187 55.02 192.854 55.02ZM199.823 57V47.08H202.083L202.283 48.76C202.589 48.1733 203.029 47.7067 203.603 47.36C204.189 47.0133 204.876 46.84 205.663 46.84C206.889 46.84 207.843 47.2267 208.523 48C209.203 48.7733 209.543 49.9067 209.543 51.4V57H206.983V51.64C206.983 50.7867 206.809 50.1333 206.463 49.68C206.116 49.2267 205.576 49 204.843 49C204.123 49 203.529 49.2533 203.063 49.76C202.609 50.2667 202.383 50.9733 202.383 51.88V57H199.823ZM215.791 54.04C215.311 54.04 214.864 53.9867 214.451 53.88L213.711 54.62C213.937 54.74 214.244 54.84 214.631 54.92C215.017 55 215.644 55.08 216.511 55.16C217.831 55.28 218.791 55.5933 219.391 56.1C219.991 56.6067 220.291 57.3067 220.291 58.2C220.291 58.7867 220.131 59.34 219.811 59.86C219.491 60.3933 218.997 60.82 218.331 61.14C217.664 61.4733 216.811 61.64 215.771 61.64C214.357 61.64 213.217 61.3733 212.351 60.84C211.484 60.32 211.051 59.5333 211.051 58.48C211.051 57.5867 211.484 56.8133 212.351 56.16C212.084 56.04 211.851 55.9133 211.651 55.78C211.464 55.6467 211.297 55.5067 211.151 55.36V54.9L212.891 53.06C212.117 52.38 211.731 51.5067 211.731 50.44C211.731 49.7733 211.891 49.1667 212.211 48.62C212.544 48.0733 213.011 47.64 213.611 47.32C214.211 47 214.937 46.84 215.791 46.84C216.351 46.84 216.871 46.92 217.351 47.08H221.111V48.64L219.411 48.76C219.677 49.2667 219.811 49.8267 219.811 50.44C219.811 51.1067 219.651 51.7133 219.331 52.26C219.011 52.8067 218.544 53.24 217.931 53.56C217.331 53.88 216.617 54.04 215.791 54.04ZM215.791 52.08C216.311 52.08 216.737 51.94 217.071 51.66C217.417 51.38 217.591 50.98 217.591 50.46C217.591 49.94 217.417 49.54 217.071 49.26C216.737 48.98 216.311 48.84 215.791 48.84C215.244 48.84 214.804 48.98 214.471 49.26C214.137 49.54 213.971 49.94 213.971 50.46C213.971 50.98 214.137 51.38 214.471 51.66C214.804 51.94 215.244 52.08 215.791 52.08ZM213.391 58.22C213.391 58.7133 213.617 59.08 214.071 59.32C214.537 59.5733 215.104 59.7 215.771 59.7C216.411 59.7 216.931 59.5667 217.331 59.3C217.731 59.0467 217.931 58.7 217.931 58.26C217.931 57.9 217.797 57.6 217.531 57.36C217.277 57.12 216.764 56.9733 215.991 56.92C215.444 56.88 214.937 56.82 214.471 56.74C214.084 56.9533 213.804 57.1867 213.631 57.44C213.471 57.6933 213.391 57.9533 213.391 58.22ZM226.677 57.24C225.797 57.24 225.024 57.1 224.357 56.82C223.691 56.5267 223.157 56.1267 222.757 55.62C222.357 55.1133 222.117 54.5267 222.037 53.86H224.617C224.697 54.2467 224.911 54.58 225.257 54.86C225.617 55.1267 226.077 55.26 226.637 55.26C227.197 55.26 227.604 55.1467 227.857 54.92C228.124 54.6933 228.257 54.4333 228.257 54.14C228.257 53.7133 228.071 53.4267 227.697 53.28C227.324 53.12 226.804 52.9667 226.137 52.82C225.711 52.7267 225.277 52.6133 224.837 52.48C224.397 52.3467 223.991 52.18 223.617 51.98C223.257 51.7667 222.964 51.5 222.737 51.18C222.511 50.8467 222.397 50.44 222.397 49.96C222.397 49.08 222.744 48.34 223.437 47.74C224.144 47.14 225.131 46.84 226.397 46.84C227.571 46.84 228.504 47.1133 229.197 47.66C229.904 48.2067 230.324 48.96 230.457 49.92H228.037C227.891 49.1867 227.337 48.82 226.377 48.82C225.897 48.82 225.524 48.9133 225.257 49.1C225.004 49.2867 224.877 49.52 224.877 49.8C224.877 50.0933 225.071 50.3267 225.457 50.5C225.844 50.6733 226.357 50.8333 226.997 50.98C227.691 51.14 228.324 51.32 228.897 51.52C229.484 51.7067 229.951 51.9933 230.297 52.38C230.644 52.7533 230.817 53.2933 230.817 54C230.831 54.6133 230.671 55.1667 230.337 55.66C230.004 56.1533 229.524 56.54 228.897 56.82C228.271 57.1 227.531 57.24 226.677 57.24Z" fill="white"/>
<defs>
<linearGradient id="paint0_linear_306_563" x1="0" y1="0" x2="100" y2="100" gradientUnits="userSpaceOnUse">
<stop stop-color="#4000F4"/>
<stop offset="0.224829" stop-color="#603AED"/>
<stop offset="0.469313" stop-color="#7C6EE6"/>
<stop offset="0.657091" stop-color="#979FE1"/>
<stop offset="0.77684" stop-color="#A2B3DE"/>
<stop offset="0.889332" stop-color="#ADC8DC"/>
<stop offset="1" stop-color="#C0ECD7"/>
</linearGradient>
<clipPath id="clip0_306_563">
<rect width="29" height="29" fill="white" transform="translate(36 36)"/>
</clipPath>
</defs>
</svg>
