<svg width="1728" height="41" viewBox="0 0 1728 41" fill="none" xmlns="http://www.w3.org/2000/svg">
<rect y="11" width="1728" height="30" fill="#1ED760"/>
<path d="M1514.7 0L1504.8 11H1524.6L1514.7 0Z" fill="#1ED760"/>
<path d="M1382.66 32V20.1H1384.83V30.3H1390.1V32H1382.66ZM1393.14 22.259C1392.74 22.259 1392.42 22.14 1392.16 21.902C1391.91 21.664 1391.78 21.3637 1391.78 21.001C1391.78 20.6383 1391.91 20.3437 1392.16 20.117C1392.42 19.879 1392.74 19.76 1393.14 19.76C1393.54 19.76 1393.86 19.879 1394.11 20.117C1394.37 20.3437 1394.5 20.6383 1394.5 21.001C1394.5 21.3637 1394.37 21.664 1394.11 21.902C1393.86 22.14 1393.54 22.259 1393.14 22.259ZM1392.05 32V23.568H1394.23V32H1392.05ZM1399.99 32.204C1399.24 32.204 1398.58 32.085 1398.01 31.847C1397.45 31.5977 1396.99 31.2577 1396.65 30.827C1396.31 30.3963 1396.11 29.8977 1396.04 29.331H1398.23C1398.3 29.6597 1398.48 29.943 1398.78 30.181C1399.08 30.4077 1399.48 30.521 1399.95 30.521C1400.43 30.521 1400.77 30.4247 1400.99 30.232C1401.22 30.0393 1401.33 29.8183 1401.33 29.569C1401.33 29.2063 1401.17 28.9627 1400.85 28.838C1400.54 28.702 1400.09 28.5717 1399.53 28.447C1399.16 28.3677 1398.8 28.2713 1398.42 28.158C1398.05 28.0447 1397.7 27.903 1397.38 27.733C1397.08 27.5517 1396.83 27.325 1396.64 27.053C1396.44 26.7697 1396.35 26.424 1396.35 26.016C1396.35 25.268 1396.64 24.639 1397.23 24.129C1397.83 23.619 1398.67 23.364 1399.75 23.364C1400.74 23.364 1401.54 23.5963 1402.13 24.061C1402.73 24.5257 1403.09 25.166 1403.2 25.982H1401.14C1401.02 25.3587 1400.55 25.047 1399.73 25.047C1399.32 25.047 1399.01 25.1263 1398.78 25.285C1398.56 25.4437 1398.46 25.642 1398.46 25.88C1398.46 26.1293 1398.62 26.3277 1398.95 26.475C1399.28 26.6223 1399.71 26.7583 1400.26 26.883C1400.85 27.019 1401.39 27.172 1401.87 27.342C1402.37 27.5007 1402.77 27.7443 1403.06 28.073C1403.36 28.3903 1403.5 28.8493 1403.5 29.45C1403.52 29.9713 1403.38 30.4417 1403.1 30.861C1402.81 31.2803 1402.41 31.609 1401.87 31.847C1401.34 32.085 1400.71 32.204 1399.99 32.204ZM1408.92 32C1408.04 32 1407.33 31.7847 1406.8 31.354C1406.27 30.9233 1406 30.1583 1406 29.059V25.387H1404.55V23.568H1406L1406.25 21.307H1408.18V23.568H1410.45V25.387H1408.18V29.076C1408.18 29.484 1408.26 29.7673 1408.43 29.926C1408.61 30.0733 1408.92 30.147 1409.35 30.147H1410.4V32H1408.92ZM1416.2 32.204C1415.35 32.204 1414.6 32.0227 1413.94 31.66C1413.28 31.2973 1412.77 30.7873 1412.39 30.13C1412.02 29.4727 1411.83 28.7133 1411.83 27.852C1411.83 26.9793 1412.02 26.203 1412.38 25.523C1412.75 24.843 1413.26 24.316 1413.91 23.942C1414.57 23.5567 1415.34 23.364 1416.22 23.364C1417.05 23.364 1417.78 23.5453 1418.41 23.908C1419.05 24.2707 1419.54 24.7693 1419.89 25.404C1420.25 26.0273 1420.44 26.7243 1420.44 27.495C1420.44 27.6197 1420.43 27.75 1420.42 27.886C1420.42 28.022 1420.41 28.1637 1420.4 28.311H1413.99C1414.04 28.9683 1414.26 29.484 1414.67 29.858C1415.09 30.232 1415.6 30.419 1416.19 30.419C1416.63 30.419 1417 30.3227 1417.29 30.13C1417.6 29.926 1417.82 29.6653 1417.97 29.348H1420.18C1420.02 29.8807 1419.76 30.368 1419.38 30.81C1419.02 31.2407 1418.57 31.5807 1418.02 31.83C1417.49 32.0793 1416.88 32.204 1416.2 32.204ZM1416.22 25.132C1415.69 25.132 1415.22 25.285 1414.81 25.591C1414.4 25.8857 1414.14 26.339 1414.03 26.951H1418.23C1418.19 26.3957 1417.99 25.9537 1417.61 25.625C1417.24 25.2963 1416.78 25.132 1416.22 25.132ZM1422.27 32V23.568H1424.19L1424.36 24.996C1424.62 24.4973 1424.99 24.1007 1425.48 23.806C1425.98 23.5113 1426.56 23.364 1427.23 23.364C1428.27 23.364 1429.08 23.6927 1429.66 24.35C1430.24 25.0073 1430.53 25.9707 1430.53 27.24V32H1428.35V27.444C1428.35 26.7187 1428.2 26.1633 1427.91 25.778C1427.62 25.3927 1427.16 25.2 1426.53 25.2C1425.92 25.2 1425.42 25.4153 1425.02 25.846C1424.63 26.2767 1424.44 26.8773 1424.44 27.648V32H1422.27ZM1433.78 22.259C1433.39 22.259 1433.06 22.14 1432.8 21.902C1432.55 21.664 1432.42 21.3637 1432.42 21.001C1432.42 20.6383 1432.55 20.3437 1432.8 20.117C1433.06 19.879 1433.39 19.76 1433.78 19.76C1434.18 19.76 1434.5 19.879 1434.75 20.117C1435.01 20.3437 1435.14 20.6383 1435.14 21.001C1435.14 21.3637 1435.01 21.664 1434.75 21.902C1434.5 22.14 1434.18 22.259 1433.78 22.259ZM1432.69 32V23.568H1434.87V32H1432.69ZM1437.14 32V23.568H1439.06L1439.23 24.996C1439.49 24.4973 1439.87 24.1007 1440.35 23.806C1440.85 23.5113 1441.44 23.364 1442.11 23.364C1443.15 23.364 1443.96 23.6927 1444.54 24.35C1445.11 25.0073 1445.4 25.9707 1445.4 27.24V32H1443.23V27.444C1443.23 26.7187 1443.08 26.1633 1442.79 25.778C1442.49 25.3927 1442.03 25.2 1441.41 25.2C1440.8 25.2 1440.29 25.4153 1439.9 25.846C1439.51 26.2767 1439.32 26.8773 1439.32 27.648V32H1437.14ZM1451.05 29.484C1450.65 29.484 1450.27 29.4387 1449.91 29.348L1449.29 29.977C1449.48 30.079 1449.74 30.164 1450.07 30.232C1450.4 30.3 1450.93 30.368 1451.67 30.436C1452.79 30.538 1453.6 30.8043 1454.11 31.235C1454.62 31.6657 1454.88 32.2607 1454.88 33.02C1454.88 33.5187 1454.74 33.989 1454.47 34.431C1454.2 34.8843 1453.78 35.247 1453.21 35.519C1452.65 35.8023 1451.92 35.944 1451.04 35.944C1449.84 35.944 1448.87 35.7173 1448.13 35.264C1447.39 34.822 1447.02 34.1533 1447.02 33.258C1447.02 32.4987 1447.39 31.8413 1448.13 31.286C1447.9 31.184 1447.7 31.0763 1447.53 30.963C1447.38 30.8497 1447.23 30.7307 1447.11 30.606V30.215L1448.59 28.651C1447.93 28.073 1447.6 27.3307 1447.6 26.424C1447.6 25.8573 1447.74 25.3417 1448.01 24.877C1448.29 24.4123 1448.69 24.044 1449.2 23.772C1449.71 23.5 1450.33 23.364 1451.05 23.364C1451.53 23.364 1451.97 23.432 1452.38 23.568H1455.58V24.894L1454.13 24.996C1454.36 25.4267 1454.47 25.9027 1454.47 26.424C1454.47 26.9907 1454.33 27.5063 1454.06 27.971C1453.79 28.4357 1453.39 28.804 1452.87 29.076C1452.36 29.348 1451.76 29.484 1451.05 29.484ZM1451.05 27.818C1451.5 27.818 1451.86 27.699 1452.14 27.461C1452.44 27.223 1452.58 26.883 1452.58 26.441C1452.58 25.999 1452.44 25.659 1452.14 25.421C1451.86 25.183 1451.5 25.064 1451.05 25.064C1450.59 25.064 1450.22 25.183 1449.93 25.421C1449.65 25.659 1449.51 25.999 1449.51 26.441C1449.51 26.883 1449.65 27.223 1449.93 27.461C1450.22 27.699 1450.59 27.818 1451.05 27.818ZM1449.01 33.037C1449.01 33.4563 1449.21 33.768 1449.59 33.972C1449.99 34.1873 1450.47 34.295 1451.04 34.295C1451.58 34.295 1452.02 34.1817 1452.36 33.955C1452.7 33.7397 1452.87 33.445 1452.87 33.071C1452.87 32.765 1452.76 32.51 1452.53 32.306C1452.32 32.102 1451.88 31.9773 1451.22 31.932C1450.76 31.898 1450.33 31.847 1449.93 31.779C1449.6 31.9603 1449.37 32.1587 1449.22 32.374C1449.08 32.5893 1449.01 32.8103 1449.01 33.037ZM1465.26 32.204C1464.44 32.204 1463.71 32.017 1463.05 31.643C1462.4 31.269 1461.89 30.7533 1461.5 30.096C1461.13 29.4273 1460.94 28.6567 1460.94 27.784C1460.94 26.9113 1461.13 26.1463 1461.52 25.489C1461.9 24.8203 1462.42 24.299 1463.07 23.925C1463.72 23.551 1464.46 23.364 1465.28 23.364C1466.08 23.364 1466.81 23.551 1467.45 23.925C1468.11 24.299 1468.63 24.8203 1469 25.489C1469.38 26.1463 1469.58 26.9113 1469.58 27.784C1469.58 28.6567 1469.38 29.4273 1469 30.096C1468.63 30.7533 1468.11 31.269 1467.45 31.643C1466.8 32.017 1466.06 32.204 1465.26 32.204ZM1465.26 30.317C1465.83 30.317 1466.32 30.1073 1466.74 29.688C1467.16 29.2573 1467.37 28.6227 1467.37 27.784C1467.37 26.9453 1467.16 26.3163 1466.74 25.897C1466.32 25.4663 1465.83 25.251 1465.28 25.251C1464.7 25.251 1464.2 25.4663 1463.78 25.897C1463.37 26.3163 1463.17 26.9453 1463.17 27.784C1463.17 28.6227 1463.37 29.2573 1463.78 29.688C1464.2 30.1073 1464.69 30.317 1465.26 30.317ZM1471.52 32V23.568H1473.44L1473.61 24.996C1473.87 24.4973 1474.25 24.1007 1474.74 23.806C1475.23 23.5113 1475.82 23.364 1476.49 23.364C1477.53 23.364 1478.34 23.6927 1478.92 24.35C1479.5 25.0073 1479.78 25.9707 1479.78 27.24V32H1477.61V27.444C1477.61 26.7187 1477.46 26.1633 1477.17 25.778C1476.87 25.3927 1476.41 25.2 1475.79 25.2C1475.18 25.2 1474.67 25.4153 1474.28 25.846C1473.89 26.2767 1473.7 26.8773 1473.7 27.648V32H1471.52ZM1485.2 32L1489.55 20.1H1492L1496.35 32H1494.04L1493.09 29.246H1488.45L1487.48 32H1485.2ZM1489.04 27.546H1492.5L1490.76 22.599L1489.04 27.546ZM1501.95 32.204C1501.08 32.204 1500.31 32.0567 1499.64 31.762C1498.97 31.456 1498.44 31.0253 1498.06 30.47C1497.67 29.9033 1497.47 29.2177 1497.46 28.413H1499.76C1499.78 28.9683 1499.98 29.4387 1500.35 29.824C1500.74 30.198 1501.26 30.385 1501.93 30.385C1502.51 30.385 1502.97 30.249 1503.31 29.977C1503.65 29.6937 1503.82 29.3197 1503.82 28.855C1503.82 28.3677 1503.67 27.988 1503.36 27.716C1503.07 27.444 1502.67 27.223 1502.17 27.053C1501.67 26.883 1501.14 26.7017 1500.57 26.509C1499.66 26.1917 1498.95 25.7837 1498.47 25.285C1497.99 24.7863 1497.75 24.1233 1497.75 23.296C1497.74 22.5933 1497.9 21.9927 1498.24 21.494C1498.6 20.984 1499.07 20.593 1499.67 20.321C1500.27 20.0377 1500.96 19.896 1501.75 19.896C1502.54 19.896 1503.24 20.0377 1503.84 20.321C1504.45 20.6043 1504.93 21.001 1505.27 21.511C1505.62 22.021 1505.8 22.6273 1505.83 23.33H1503.5C1503.49 22.9107 1503.32 22.5423 1503 22.225C1502.7 21.8963 1502.27 21.732 1501.71 21.732C1501.24 21.7207 1500.83 21.8397 1500.51 22.089C1500.19 22.327 1500.03 22.6783 1500.03 23.143C1500.03 23.5397 1500.15 23.857 1500.4 24.095C1500.65 24.3217 1500.99 24.5143 1501.42 24.673C1501.85 24.8317 1502.35 25.0017 1502.9 25.183C1503.49 25.387 1504.03 25.625 1504.52 25.897C1505 26.169 1505.4 26.5317 1505.69 26.985C1505.99 27.427 1506.13 27.9993 1506.13 28.702C1506.13 29.3253 1505.97 29.9033 1505.66 30.436C1505.34 30.9687 1504.87 31.3993 1504.25 31.728C1503.62 32.0453 1502.86 32.204 1501.95 32.204ZM1512.62 32.204C1511.75 32.204 1510.96 32.034 1510.26 31.694C1509.56 31.3427 1508.99 30.8157 1508.58 30.113C1508.17 29.4103 1507.96 28.5207 1507.96 27.444V20.1H1510.14V27.461C1510.14 28.3903 1510.36 29.0817 1510.8 29.535C1511.26 29.9883 1511.88 30.215 1512.67 30.215C1513.45 30.215 1514.07 29.9883 1514.53 29.535C1514.98 29.0817 1515.21 28.3903 1515.21 27.461V20.1H1517.38V27.444C1517.38 28.5207 1517.17 29.4103 1516.74 30.113C1516.3 30.8157 1515.73 31.3427 1515 31.694C1514.29 32.034 1513.49 32.204 1512.62 32.204ZM1523.67 32.204C1522.79 32.204 1522.02 32.0567 1521.35 31.762C1520.68 31.456 1520.16 31.0253 1519.77 30.47C1519.39 29.9033 1519.19 29.2177 1519.18 28.413H1521.47C1521.49 28.9683 1521.69 29.4387 1522.07 29.824C1522.45 30.198 1522.98 30.385 1523.65 30.385C1524.23 30.385 1524.69 30.249 1525.03 29.977C1525.37 29.6937 1525.54 29.3197 1525.54 28.855C1525.54 28.3677 1525.38 27.988 1525.08 27.716C1524.78 27.444 1524.38 27.223 1523.89 27.053C1523.39 26.883 1522.85 26.7017 1522.29 26.509C1521.37 26.1917 1520.67 25.7837 1520.18 25.285C1519.7 24.7863 1519.47 24.1233 1519.47 23.296C1519.45 22.5933 1519.62 21.9927 1519.96 21.494C1520.31 20.984 1520.79 20.593 1521.39 20.321C1521.99 20.0377 1522.68 19.896 1523.46 19.896C1524.25 19.896 1524.95 20.0377 1525.55 20.321C1526.16 20.6043 1526.64 21.001 1526.98 21.511C1527.33 22.021 1527.52 22.6273 1527.54 23.33H1525.21C1525.2 22.9107 1525.04 22.5423 1524.72 22.225C1524.41 21.8963 1523.98 21.732 1523.43 21.732C1522.95 21.7207 1522.55 21.8397 1522.22 22.089C1521.9 22.327 1521.74 22.6783 1521.74 23.143C1521.74 23.5397 1521.87 23.857 1522.12 24.095C1522.37 24.3217 1522.71 24.5143 1523.14 24.673C1523.57 24.8317 1524.06 25.0017 1524.62 25.183C1525.21 25.387 1525.74 25.625 1526.23 25.897C1526.72 26.169 1527.11 26.5317 1527.41 26.985C1527.7 27.427 1527.85 27.9993 1527.85 28.702C1527.85 29.3253 1527.69 29.9033 1527.37 30.436C1527.05 30.9687 1526.58 31.3993 1525.96 31.728C1525.34 32.0453 1524.57 32.204 1523.67 32.204ZM1529.51 27.988V26.169H1536.63V27.988H1529.51ZM1538.71 32V20.1H1543.08C1544.03 20.1 1544.81 20.2643 1545.43 20.593C1546.05 20.9103 1546.51 21.3467 1546.82 21.902C1547.13 22.446 1547.28 23.0523 1547.28 23.721C1547.28 24.4463 1547.09 25.1093 1546.7 25.71C1546.33 26.3107 1545.74 26.747 1544.93 27.019L1547.4 32H1544.9L1542.69 27.308H1540.89V32H1538.71ZM1540.89 25.71H1542.94C1543.67 25.71 1544.2 25.5343 1544.54 25.183C1544.88 24.8317 1545.05 24.367 1545.05 23.789C1545.05 23.2223 1544.88 22.769 1544.54 22.429C1544.21 22.089 1543.67 21.919 1542.93 21.919H1540.89V25.71ZM1554.88 32.204C1553.69 32.204 1552.65 31.9433 1551.75 31.422C1550.87 30.9007 1550.17 30.181 1549.66 29.263C1549.16 28.3337 1548.91 27.2627 1548.91 26.05C1548.91 24.8373 1549.16 23.772 1549.66 22.854C1550.17 21.9247 1550.87 21.1993 1551.75 20.678C1552.65 20.1567 1553.69 19.896 1554.88 19.896C1556.06 19.896 1557.09 20.1567 1557.99 20.678C1558.88 21.1993 1559.58 21.9247 1560.08 22.854C1560.58 23.772 1560.83 24.8373 1560.83 26.05C1560.83 27.2627 1560.58 28.3337 1560.08 29.263C1559.58 30.181 1558.88 30.9007 1557.99 31.422C1557.09 31.9433 1556.06 32.204 1554.88 32.204ZM1554.88 30.249C1556.01 30.249 1556.91 29.875 1557.58 29.127C1558.26 28.379 1558.6 27.3533 1558.6 26.05C1558.6 24.7467 1558.26 23.721 1557.58 22.973C1556.91 22.225 1556.01 21.851 1554.88 21.851C1553.75 21.851 1552.84 22.225 1552.16 22.973C1551.48 23.721 1551.14 24.7467 1551.14 26.05C1551.14 27.3533 1551.48 28.379 1552.16 29.127C1552.84 29.875 1553.75 30.249 1554.88 30.249ZM1567.95 32.204C1566.83 32.204 1565.85 31.949 1565.01 31.439C1564.17 30.929 1563.52 30.2207 1563.06 29.314C1562.59 28.396 1562.36 27.3307 1562.36 26.118C1562.36 24.894 1562.6 23.8173 1563.07 22.888C1563.56 21.9473 1564.25 21.2163 1565.13 20.695C1566.03 20.1623 1567.08 19.896 1568.31 19.896C1569.7 19.896 1570.86 20.2303 1571.78 20.899C1572.69 21.5677 1573.29 22.4913 1573.56 23.67H1571.13C1570.95 23.1147 1570.62 22.684 1570.14 22.378C1569.67 22.0607 1569.06 21.902 1568.31 21.902C1567.12 21.902 1566.2 22.2817 1565.55 23.041C1564.91 23.789 1564.59 24.8203 1564.59 26.135C1564.59 27.4497 1564.9 28.4697 1565.54 29.195C1566.18 29.909 1567.06 30.266 1568.16 30.266C1569.23 30.266 1570.04 29.977 1570.59 29.399C1571.14 28.8097 1571.48 28.039 1571.59 27.087H1568.58V25.455H1573.78V32H1571.78L1571.61 30.436C1571.22 31.0027 1570.74 31.439 1570.16 31.745C1569.58 32.051 1568.85 32.204 1567.95 32.204ZM1575.66 27.988V26.169H1582.78V27.988H1575.66ZM1590.07 32.204C1588.94 32.204 1587.96 31.949 1587.12 31.439C1586.29 30.929 1585.63 30.2207 1585.17 29.314C1584.7 28.396 1584.47 27.3307 1584.47 26.118C1584.47 24.894 1584.71 23.8173 1585.19 22.888C1585.67 21.9473 1586.36 21.2163 1587.24 20.695C1588.14 20.1623 1589.2 19.896 1590.42 19.896C1591.82 19.896 1592.97 20.2303 1593.89 20.899C1594.81 21.5677 1595.4 22.4913 1595.68 23.67H1593.24C1593.06 23.1147 1592.73 22.684 1592.26 22.378C1591.78 22.0607 1591.17 21.902 1590.42 21.902C1589.23 21.902 1588.31 22.2817 1587.67 23.041C1587.02 23.789 1586.7 24.8203 1586.7 26.135C1586.7 27.4497 1587.02 28.4697 1587.65 29.195C1588.3 29.909 1589.17 30.266 1590.27 30.266C1591.35 30.266 1592.16 29.977 1592.7 29.399C1593.26 28.8097 1593.59 28.039 1593.7 27.087H1590.69V25.455H1595.9V32H1593.89L1593.72 30.436C1593.33 31.0027 1592.85 31.439 1592.28 31.745C1591.7 32.051 1590.96 32.204 1590.07 32.204ZM1602.28 32.204C1601.41 32.204 1600.65 32.051 1600.02 31.745C1599.39 31.439 1598.9 31.0197 1598.54 30.487C1598.19 29.943 1597.98 29.331 1597.93 28.651H1600.05C1600.15 29.1383 1600.4 29.5463 1600.8 29.875C1601.2 30.1923 1601.69 30.351 1602.28 30.351C1602.91 30.351 1603.43 30.1187 1603.83 29.654C1604.23 29.1893 1604.44 28.6113 1604.44 27.92C1604.44 27.206 1604.23 26.6393 1603.83 26.22C1603.43 25.8007 1602.92 25.591 1602.31 25.591C1601.8 25.591 1601.36 25.7157 1600.99 25.965C1600.61 26.2143 1600.35 26.526 1600.19 26.9H1598.1L1599.12 20.1H1605.71V22.004H1600.75L1600.2 24.758C1600.45 24.486 1600.79 24.265 1601.22 24.095C1601.66 23.9137 1602.14 23.823 1602.67 23.823C1603.52 23.823 1604.23 24.0157 1604.79 24.401C1605.36 24.775 1605.79 25.2737 1606.09 25.897C1606.38 26.509 1606.53 27.1777 1606.53 27.903C1606.53 28.7303 1606.35 29.467 1605.98 30.113C1605.63 30.759 1605.13 31.269 1604.49 31.643C1603.85 32.017 1603.12 32.204 1602.28 32.204ZM1612.45 32.204C1611.66 32.204 1610.96 32.068 1610.32 31.796C1609.69 31.5127 1609.18 31.082 1608.79 30.504C1608.41 29.926 1608.2 29.2007 1608.18 28.328H1610.32C1610.33 28.906 1610.52 29.3933 1610.88 29.79C1611.26 30.1753 1611.78 30.368 1612.45 30.368C1613.08 30.368 1613.57 30.1923 1613.91 29.841C1614.25 29.4897 1614.42 29.0477 1614.42 28.515C1614.42 27.8917 1614.19 27.4213 1613.74 27.104C1613.3 26.7753 1612.72 26.611 1612.02 26.611H1611.14V24.826H1612.04C1612.62 24.826 1613.1 24.69 1613.48 24.418C1613.87 24.146 1614.06 23.7437 1614.06 23.211C1614.06 22.769 1613.91 22.4177 1613.62 22.157C1613.34 21.885 1612.94 21.749 1612.43 21.749C1611.87 21.749 1611.44 21.9133 1611.12 22.242C1610.81 22.5707 1610.64 22.973 1610.61 23.449H1608.49C1608.53 22.3497 1608.91 21.4827 1609.62 20.848C1610.35 20.2133 1611.28 19.896 1612.43 19.896C1613.25 19.896 1613.93 20.0433 1614.49 20.338C1615.05 20.6213 1615.48 21.001 1615.76 21.477C1616.06 21.953 1616.2 22.48 1616.2 23.058C1616.2 23.7267 1616.02 24.2933 1615.64 24.758C1615.28 25.2113 1614.83 25.5173 1614.28 25.676C1614.95 25.812 1615.5 26.1407 1615.91 26.662C1616.33 27.172 1616.54 27.818 1616.54 28.6C1616.54 29.2573 1616.38 29.858 1616.07 30.402C1615.75 30.946 1615.29 31.3823 1614.67 31.711C1614.07 32.0397 1613.33 32.204 1612.45 32.204ZM1619.82 32V22.582L1617.87 23.041V21.375L1620.74 20.1H1622.08V32H1619.82ZM1629.59 32.204C1628.47 32.204 1627.49 31.949 1626.65 31.439C1625.81 30.929 1625.16 30.2207 1624.7 29.314C1624.23 28.396 1624 27.3307 1624 26.118C1624 24.894 1624.24 23.8173 1624.71 22.888C1625.2 21.9473 1625.89 21.2163 1626.77 20.695C1627.67 20.1623 1628.73 19.896 1629.95 19.896C1631.34 19.896 1632.5 20.2303 1633.42 20.899C1634.34 21.5677 1634.93 22.4913 1635.2 23.67H1632.77C1632.59 23.1147 1632.26 22.684 1631.79 22.378C1631.31 22.0607 1630.7 21.902 1629.95 21.902C1628.76 21.902 1627.84 22.2817 1627.2 23.041C1626.55 23.789 1626.23 24.8203 1626.23 26.135C1626.23 27.4497 1626.54 28.4697 1627.18 29.195C1627.83 29.909 1628.7 30.266 1629.8 30.266C1630.87 30.266 1631.68 29.977 1632.23 29.399C1632.78 28.8097 1633.12 28.039 1633.23 27.087H1630.22V25.455H1635.42V32H1633.42L1633.25 30.436C1632.86 31.0027 1632.38 31.439 1631.8 31.745C1631.23 32.051 1630.49 32.204 1629.59 32.204ZM1640.31 32V21.851H1636.84V20.1H1645.97V21.851H1642.49V32H1640.31Z" fill="black"/>
<path d="M1370.93 20.1876C1370.93 19.3783 1370.07 18.9501 1369.52 19.4871L1366.49 22.4818C1366.4 22.5735 1366.28 22.6242 1366.15 22.6243H1363.67C1363.27 22.6243 1362.88 22.8021 1362.6 23.1186C1362.31 23.4351 1362.15 23.8643 1362.15 24.3118V27.6846C1362.15 28.1321 1362.31 28.5614 1362.6 28.8778C1362.88 29.1943 1363.27 29.3721 1363.67 29.3721H1366.15C1366.28 29.3723 1366.4 29.423 1366.49 29.5146L1369.52 32.5101C1370.06 33.0471 1370.93 32.6181 1370.93 31.8096V20.1876ZM1367.16 23.3226L1369.91 20.6053V31.3918L1367.16 28.6738C1366.88 28.3991 1366.53 28.2472 1366.15 28.2471H1363.67C1363.53 28.2471 1363.41 28.1878 1363.31 28.0823C1363.22 27.9769 1363.16 27.8338 1363.16 27.6846V24.3126C1363.16 24.1634 1363.22 24.0203 1363.31 23.9148C1363.41 23.8094 1363.53 23.7501 1363.67 23.7501H1366.15C1366.53 23.75 1366.88 23.5981 1367.16 23.3233V23.3226Z" fill="black"/>
<path d="M1373.62 21.4228C1373.67 21.3788 1373.73 21.347 1373.8 21.3292C1373.86 21.3113 1373.93 21.3078 1374 21.3187C1374.06 21.3296 1374.12 21.3548 1374.18 21.3929C1374.24 21.431 1374.29 21.4811 1374.33 21.5405C1375.19 22.8304 1375.65 24.3942 1375.65 26C1375.65 27.6059 1375.19 29.1697 1374.33 30.4595C1374.25 30.5741 1374.13 30.6489 1374 30.6681C1373.87 30.6874 1373.73 30.6495 1373.63 30.5626C1373.52 30.4757 1373.45 30.3466 1373.43 30.2025C1373.41 30.0584 1373.44 29.9106 1373.51 29.7905C1374.25 28.6942 1374.64 27.365 1374.64 26C1374.64 24.6351 1374.25 23.3058 1373.51 22.2095C1373.47 22.1501 1373.45 22.0827 1373.43 22.011C1373.41 21.9393 1373.41 21.8648 1373.42 21.7918C1373.43 21.7187 1373.45 21.6485 1373.49 21.5852C1373.52 21.5219 1373.57 21.4667 1373.62 21.4228Z" fill="black"/>
<path d="M1372.37 23.2775C1372.43 23.2423 1372.49 23.2202 1372.56 23.2125C1372.63 23.2048 1372.69 23.2117 1372.76 23.2327C1372.82 23.2538 1372.88 23.2886 1372.93 23.3351C1372.98 23.3817 1373.03 23.439 1373.06 23.504C1373.42 24.2465 1373.63 25.0978 1373.63 26C1373.63 26.8715 1373.43 27.7295 1373.06 28.496C1372.99 28.6273 1372.89 28.725 1372.76 28.7676C1372.63 28.8102 1372.49 28.7943 1372.37 28.7233C1372.25 28.6523 1372.17 28.532 1372.13 28.389C1372.09 28.2459 1372.1 28.0918 1372.17 27.9605C1372.45 27.3778 1372.61 26.711 1372.61 26C1372.61 25.289 1372.45 24.6223 1372.17 24.0395C1372.14 23.9745 1372.12 23.9032 1372.11 23.8297C1372.1 23.7562 1372.11 23.6819 1372.13 23.611C1372.15 23.5402 1372.18 23.4742 1372.22 23.4169C1372.26 23.3595 1372.31 23.3119 1372.37 23.2768V23.2775Z" fill="black"/>
</svg>
